<svg width="54" height="21" viewBox="0 0 54 21" fill="none" xmlns="http://www.w3.org/2000/svg">
<path fill-rule="evenodd" clip-rule="evenodd" d="M9.75 0H5C2.23858 0 0 2.23858 0 5V21H9.75V19.95C9.75 19.8119 9.86193 19.7 10 19.7C10.1381 19.7 10.25 19.8119 10.25 19.95V21H50C52.2091 21 54 19.2091 54 17V0H10.25V1.05C10.25 1.18807 10.1381 1.3 10 1.3C9.86193 1.3 9.75 1.18807 9.75 1.05V0ZM10.25 3.15C10.25 3.01193 10.1381 2.9 10 2.9C9.86193 2.9 9.75 3.01193 9.75 3.15V5.25C9.75 5.38807 9.86193 5.5 10 5.5C10.1381 5.5 10.25 5.38807 10.25 5.25V3.15ZM10.25 7.35C10.25 7.21193 10.1381 7.1 10 7.1C9.86193 7.1 9.75 7.21193 9.75 7.35V9.45C9.75 9.58807 9.86193 9.7 10 9.7C10.1381 9.7 10.25 9.58807 10.25 9.45V7.35ZM10.25 11.55C10.25 11.4119 10.1381 11.3 10 11.3C9.86193 11.3 9.75 11.4119 9.75 11.55V13.65C9.75 13.7881 9.86193 13.9 10 13.9C10.1381 13.9 10.25 13.7881 10.25 13.65V11.55ZM10.25 15.75C10.25 15.6119 10.1381 15.5 10 15.5C9.86193 15.5 9.75 15.6119 9.75 15.75V17.85C9.75 17.9881 9.86193 18.1 10 18.1C10.1381 18.1 10.25 17.9881 10.25 17.85V15.75Z" fill="#3BA8FF"/>
</svg>
