<svg width="72" height="72" viewBox="0 0 72 72" fill="none" xmlns="http://www.w3.org/2000/svg">
<rect width="72" height="72" rx="36" fill="#D5D5D5"/>
<path fill-rule="evenodd" clip-rule="evenodd" d="M57.9375 23H14.0625V31.6666C16.2002 31.6671 17.9331 33.607 17.9331 36C17.9331 38.3929 16.2002 40.3328 14.0625 40.3333V49H57.9375V40.3333H57.9368C55.7987 40.3333 54.0654 38.3932 54.0654 36C54.0654 33.6067 55.7987 31.6666 57.9368 31.6666H57.9375V23ZM27.0879 25.7368C27.4665 25.7368 27.7734 25.4305 27.7734 25.0526C27.7734 24.6747 27.4665 24.3684 27.0879 24.3684C26.7093 24.3684 26.4023 24.6747 26.4023 25.0526C26.4023 25.4305 26.7093 25.7368 27.0879 25.7368ZM27.7734 27.7895C27.7734 28.1673 27.4665 28.4737 27.0879 28.4737C26.7093 28.4737 26.4023 28.1673 26.4023 27.7895C26.4023 27.4116 26.7093 27.1052 27.0879 27.1052C27.4665 27.1052 27.7734 27.4116 27.7734 27.7895ZM27.0879 31.2105C27.4665 31.2105 27.7734 30.9042 27.7734 30.5263C27.7734 30.1484 27.4665 29.8421 27.0879 29.8421C26.7093 29.8421 26.4023 30.1484 26.4023 30.5263C26.4023 30.9042 26.7093 31.2105 27.0879 31.2105ZM27.7734 33.2631C27.7734 33.641 27.4665 33.9473 27.0879 33.9473C26.7093 33.9473 26.4023 33.641 26.4023 33.2631C26.4023 32.8852 26.7093 32.5789 27.0879 32.5789C27.4665 32.5789 27.7734 32.8852 27.7734 33.2631ZM27.0879 36.6842C27.4665 36.6842 27.7734 36.3778 27.7734 36C27.7734 35.6221 27.4665 35.3157 27.0879 35.3157C26.7093 35.3157 26.4023 35.6221 26.4023 36C26.4023 36.3778 26.7093 36.6842 27.0879 36.6842ZM27.7734 38.7369C27.7734 39.1148 27.4665 39.4211 27.0879 39.4211C26.7093 39.4211 26.4023 39.1148 26.4023 38.7369C26.4023 38.359 26.7093 38.0527 27.0879 38.0527C27.4665 38.0527 27.7734 38.359 27.7734 38.7369ZM27.0879 42.1579C27.4665 42.1579 27.7734 41.8516 27.7734 41.4737C27.7734 41.0958 27.4665 40.7895 27.0879 40.7895C26.7093 40.7895 26.4023 41.0958 26.4023 41.4737C26.4023 41.8516 26.7093 42.1579 27.0879 42.1579ZM27.7734 44.2105C27.7734 44.5884 27.4665 44.8948 27.0879 44.8948C26.7093 44.8948 26.4023 44.5884 26.4023 44.2105C26.4023 43.8327 26.7093 43.5263 27.0879 43.5263C27.4665 43.5263 27.7734 43.8327 27.7734 44.2105ZM27.0879 47.6316C27.4665 47.6316 27.7734 47.3253 27.7734 46.9474C27.7734 46.5695 27.4665 46.2632 27.0879 46.2632C26.7093 46.2632 26.4023 46.5695 26.4023 46.9474C26.4023 47.3253 26.7093 47.6316 27.0879 47.6316Z" fill="#F7F7F7"/>
</svg>
