<svg width="16" height="20" viewBox="0 0 16 20" fill="none" xmlns="http://www.w3.org/2000/svg">
<mask id="path-1-inside-1_317_8225" fill="white">
<path fill-rule="evenodd" clip-rule="evenodd" d="M10.5794 17.8842C12.9176 15.2517 16 11.027 16 7.04914C16 2.80209 12.4183 0 8 0C3.58172 0 0 3.44292 0 7.68997C0 10.9011 3.1387 15.118 5.48413 17.8208C6.8479 19.3924 9.19758 19.4399 10.5794 17.8842ZM7.99989 11.1077C9.96357 11.1077 11.5554 9.57755 11.5554 7.68997C11.5554 5.80239 9.96357 4.27221 7.99989 4.27221C6.03621 4.27221 4.44434 5.80239 4.44434 7.68997C4.44434 9.57755 6.03621 11.1077 7.99989 11.1077Z"/>
</mask>
<path fill-rule="evenodd" clip-rule="evenodd" d="M10.5794 17.8842C12.9176 15.2517 16 11.027 16 7.04914C16 2.80209 12.4183 0 8 0C3.58172 0 0 3.44292 0 7.68997C0 10.9011 3.1387 15.118 5.48413 17.8208C6.8479 19.3924 9.19758 19.4399 10.5794 17.8842ZM7.99989 11.1077C9.96357 11.1077 11.5554 9.57755 11.5554 7.68997C11.5554 5.80239 9.96357 4.27221 7.99989 4.27221C6.03621 4.27221 4.44434 5.80239 4.44434 7.68997C4.44434 9.57755 6.03621 11.1077 7.99989 11.1077Z" fill="#2196F3"/>
<path d="M10.5794 17.8842L11.3271 18.5483H11.3271L10.5794 17.8842ZM5.48413 17.8208L6.23941 17.1654H6.23941L5.48413 17.8208ZM15 7.04914C15 8.79393 14.3181 10.6688 13.2957 12.4795C12.2799 14.2786 10.9739 15.9341 9.83173 17.2201L11.3271 18.5483C12.523 17.2018 13.9273 15.4287 15.0373 13.4628C16.1407 11.5086 17 9.28219 17 7.04914H15ZM8 1C12.0239 1 15 3.50001 15 7.04914H17C17 2.10417 12.8127 -1 8 -1V1ZM1 7.68997C1 4.03209 4.09639 1 8 1V-1C3.06706 -1 -1 2.85375 -1 7.68997H1ZM6.23941 17.1654C5.08578 15.836 3.75582 14.155 2.71965 12.4309C1.66484 10.6758 1 9.01393 1 7.68997H-1C-1 9.57718 -0.0954897 11.6293 1.00541 13.4611C2.12494 15.324 3.53705 17.1028 4.72885 18.4762L6.23941 17.1654ZM9.83173 17.2201C8.863 18.3107 7.21964 18.295 6.23941 17.1654L4.72885 18.4762C6.47615 20.4898 9.53216 20.5691 11.3271 18.5483L9.83173 17.2201ZM10.5554 7.68997C10.5554 8.98838 9.44891 10.1077 7.99989 10.1077V12.1077C10.4782 12.1077 12.5554 10.1667 12.5554 7.68997H10.5554ZM7.99989 5.27221C9.44891 5.27221 10.5554 6.39156 10.5554 7.68997H12.5554C12.5554 5.21322 10.4782 3.27221 7.99989 3.27221V5.27221ZM5.44434 7.68997C5.44434 6.39156 6.55088 5.27221 7.99989 5.27221V3.27221C5.52155 3.27221 3.44434 5.21322 3.44434 7.68997H5.44434ZM7.99989 10.1077C6.55088 10.1077 5.44434 8.98838 5.44434 7.68997H3.44434C3.44434 10.1667 5.52155 12.1077 7.99989 12.1077V10.1077Z" fill="#2196F3" mask="url(#path-1-inside-1_317_8225)"/>
</svg>
