<svg width="28" height="16" viewBox="0 0 28 16" fill="none" xmlns="http://www.w3.org/2000/svg">
<rect width="28" height="16" fill="#F5F5F5"/>
<g id="&#235;&#132;&#164;&#235;&#185;&#132;&#234;&#178;&#140;&#236;&#157;&#180;&#236;&#133;&#152; &#235;&#176;&#148;">
<path d="M-877 -979C-877 -980.105 -876.105 -981 -875 -981H1783C1784.1 -981 1785 -980.105 1785 -979V270C1785 271.105 1784.1 272 1783 272H-875C-876.105 272 -877 271.105 -877 270V-979Z" fill="#D3D3D3"/>
<path d="M-875 -980H1783V-982H-875V-980ZM1784 -979V270H1786V-979H1784ZM1783 271H-875V273H1783V271ZM-876 270V-979H-878V270H-876ZM-875 271C-875.552 271 -876 270.552 -876 270H-878C-878 271.657 -876.657 273 -875 273V271ZM1784 270C1784 270.552 1783.55 271 1783 271V273C1784.66 273 1786 271.657 1786 270H1784ZM1783 -980C1783.55 -980 1784 -979.552 1784 -979H1786C1786 -980.657 1784.66 -982 1783 -982V-980ZM-875 -982C-876.657 -982 -878 -980.657 -878 -979H-876C-876 -979.552 -875.552 -980 -875 -980V-982Z" fill="black" fill-opacity="0.1"/>
<g id="&#237;&#153;&#136;&#237;&#153;&#148;&#235;&#169;&#180;" clip-path="url(#clip0_305_2203)">
<rect width="390" height="884" transform="translate(-227 -813)" fill="white"/>
<path id="Rectangle 224" d="M-227 -461C-227 -469.284 -220.284 -476 -212 -476H148C156.284 -476 163 -469.284 163 -461V71H-227V-461Z" fill="#F7F7F7"/>
<g id="Group 1000001674">
<path id="Rectangle 201" d="M-227 -15H163V71H-227V-15Z" fill="white"/>
</g>
<g id="Group 1000001676">
<path id="Rectangle 201_2" d="M-227 -15H163V71H-227V-15Z" fill="white"/>
</g>
<g id="Frame 48099456">
<g id="Frame 48099453">
<g id="Frame 48099435">
<path id="Subtract" fill-rule="evenodd" clip-rule="evenodd" d="M27.5 0H0.5V5.33331H0.500024C1.81576 5.33331 2.88238 6.52722 2.88238 7.99998C2.88238 9.47274 1.81576 10.6666 0.500024 10.6666H0.5V16H27.5V10.6666H27.5C26.1842 10.6666 25.1176 9.47274 25.1176 7.99998C25.1176 6.52722 26.1842 5.33331 27.5 5.33331H27.5V0ZM8.51559 1.68421C8.74859 1.68421 8.93747 1.4957 8.93747 1.26315C8.93747 1.03061 8.74859 0.842102 8.51559 0.842102C8.2826 0.842102 8.09372 1.03061 8.09372 1.26315C8.09372 1.4957 8.2826 1.68421 8.51559 1.68421ZM8.93747 2.94736C8.93747 3.1799 8.74859 3.36841 8.51559 3.36841C8.2826 3.36841 8.09372 3.1799 8.09372 2.94736C8.09372 2.71482 8.2826 2.52631 8.51559 2.52631C8.74859 2.52631 8.93747 2.71482 8.93747 2.94736ZM8.51559 5.05262C8.74859 5.05262 8.93747 4.8641 8.93747 4.63156C8.93747 4.39902 8.74859 4.21051 8.51559 4.21051C8.2826 4.21051 8.09372 4.39902 8.09372 4.63156C8.09372 4.8641 8.2826 5.05262 8.51559 5.05262ZM8.93747 6.31577C8.93747 6.54831 8.74859 6.73682 8.51559 6.73682C8.2826 6.73682 8.09372 6.54831 8.09372 6.31577C8.09372 6.08323 8.2826 5.89471 8.51559 5.89471C8.74859 5.89471 8.93747 6.08323 8.93747 6.31577ZM8.51559 8.42102C8.74859 8.42102 8.93747 8.23251 8.93747 7.99997C8.93747 7.76743 8.74859 7.57892 8.51559 7.57892C8.2826 7.57892 8.09372 7.76743 8.09372 7.99997C8.09372 8.23251 8.2826 8.42102 8.51559 8.42102ZM8.93747 9.68424C8.93747 9.91678 8.74859 10.1053 8.51559 10.1053C8.2826 10.1053 8.09372 9.91678 8.09372 9.68424C8.09372 9.4517 8.2826 9.26318 8.51559 9.26318C8.74859 9.26318 8.93747 9.4517 8.93747 9.68424ZM8.51559 11.7895C8.74859 11.7895 8.93747 11.601 8.93747 11.3684C8.93747 11.1359 8.74859 10.9474 8.51559 10.9474C8.2826 10.9474 8.09372 11.1359 8.09372 11.3684C8.09372 11.601 8.2826 11.7895 8.51559 11.7895ZM8.93747 13.0526C8.93747 13.2852 8.74859 13.4737 8.51559 13.4737C8.2826 13.4737 8.09372 13.2852 8.09372 13.0526C8.09372 12.8201 8.2826 12.6316 8.51559 12.6316C8.74859 12.6316 8.93747 12.8201 8.93747 13.0526ZM8.51559 15.1579C8.74859 15.1579 8.93747 14.9694 8.93747 14.7368C8.93747 14.5043 8.74859 14.3158 8.51559 14.3158C8.2826 14.3158 8.09372 14.5043 8.09372 14.7368C8.09372 14.9694 8.2826 15.1579 8.51559 15.1579Z" fill="#BABABA"/>
</g>
</g>
</g>
</g>
</g>
<defs>
<clipPath id="clip0_305_2203">
<rect width="390" height="884" fill="white" transform="translate(-227 -813)"/>
</clipPath>
</defs>
</svg>
