<svg width="512" height="512" viewBox="0 0 512 512" fill="none" xmlns="http://www.w3.org/2000/svg">
<rect width="512" height="512" rx="100" fill="#2196F3"/>
<path d="M67.6226 255.034C67.6226 248.865 72.6519 243.864 78.8559 243.864H79.6048C82.9136 243.864 85.596 246.531 85.596 249.821V260.246C85.596 263.537 82.9136 266.204 79.6048 266.204H78.8559C72.6519 266.204 67.6226 261.203 67.6226 255.034Z" fill="white"/>
<path d="M94.5827 218.174C94.5827 212.005 99.612 207.004 105.816 207.004C112.02 207.004 117.049 212.005 117.049 218.174V291.894C117.049 298.063 112.02 303.064 105.816 303.064C99.612 303.064 94.5827 298.063 94.5827 291.894V218.174Z" fill="white"/>
<path d="M126.036 194.348C126.036 188.383 130.899 183.547 136.898 183.547C136.96 183.547 137.021 183.548 137.082 183.549C137.145 183.548 137.207 183.547 137.27 183.547H158.251C164.455 183.547 169.484 188.548 169.484 194.717C169.484 200.886 164.455 205.887 158.251 205.887H150.007C148.766 205.887 147.76 206.887 147.76 208.121V241.63C147.76 242.864 148.766 243.864 150.007 243.864H361.993C363.234 243.864 364.239 242.864 364.239 241.63V208.121C364.239 206.887 363.234 205.887 361.993 205.887H353.749C347.545 205.887 342.516 200.886 342.516 194.717C342.516 188.548 347.545 183.547 353.749 183.547H374.73C374.793 183.547 374.855 183.548 374.917 183.549C374.979 183.548 375.04 183.547 375.101 183.547C381.1 183.547 385.963 188.383 385.963 194.348V194.647L385.964 194.717L385.963 194.787V315.28L385.964 315.351L385.963 315.421V315.72C385.963 321.685 381.1 326.521 375.101 326.521C375.058 326.521 375.015 326.52 374.972 326.52C374.954 326.52 374.936 326.52 374.917 326.519C374.855 326.52 374.793 326.521 374.73 326.521H353.749C347.545 326.521 342.516 321.52 342.516 315.351C342.516 309.182 347.545 304.181 353.749 304.181H361.993C363.234 304.181 364.239 303.181 364.239 301.947V268.438C364.239 267.204 363.234 266.204 361.993 266.204H150.007C148.766 266.204 147.76 267.204 147.76 268.438V301.947C147.76 303.181 148.766 304.181 150.007 304.181H158.251C164.455 304.181 169.484 309.182 169.484 315.351C169.484 321.52 164.455 326.521 158.251 326.521H137.269C137.207 326.521 137.145 326.52 137.082 326.519C137.021 326.52 136.96 326.521 136.898 326.521C130.899 326.521 126.036 321.685 126.036 315.72V194.348Z" fill="white"/>
<path d="M394.95 218.174C394.95 212.005 399.98 207.004 406.184 207.004C412.388 207.004 417.417 212.005 417.417 218.174V291.894C417.417 298.063 412.388 303.064 406.184 303.064C399.98 303.064 394.95 298.063 394.95 291.894V218.174Z" fill="white"/>
<path d="M444.377 255.034C444.377 248.865 439.348 243.864 433.144 243.864H432.395C429.086 243.864 426.404 246.531 426.404 249.821V260.246C426.404 263.537 429.086 266.204 432.395 266.204H433.144C439.348 266.204 444.377 261.203 444.377 255.034Z" fill="white"/>
</svg>
