<svg width="70" height="28" viewBox="0 0 70 28" fill="none" xmlns="http://www.w3.org/2000/svg">
<path fill-rule="evenodd" clip-rule="evenodd" d="M12.7128 0H0V21.2222C0 24.5359 2.68629 27.2222 6 27.2222H12.7128V26.25C12.7128 26.1119 12.8247 26 12.9628 26C13.1009 26 13.2128 26.1119 13.2128 26.25V27.2222H70V7C70 3.13401 66.866 0 63 0H13.2128V0.972222C13.2128 1.11029 13.1009 1.22222 12.9628 1.22222C12.8247 1.22222 12.7128 1.11029 12.7128 0.972222V0ZM13.2128 2.91667C13.2128 2.7786 13.1009 2.66667 12.9628 2.66667C12.8247 2.66667 12.7128 2.7786 12.7128 2.91667V4.86111C12.7128 4.99918 12.8247 5.11111 12.9628 5.11111C13.1009 5.11111 13.2128 4.99918 13.2128 4.86111V2.91667ZM13.2128 6.80556C13.2128 6.66748 13.1009 6.55556 12.9628 6.55556C12.8247 6.55556 12.7128 6.66748 12.7128 6.80556V8.75C12.7128 8.88807 12.8247 9 12.9628 9C13.1009 9 13.2128 8.88807 13.2128 8.75V6.80556ZM13.2128 10.6944C13.2128 10.5564 13.1009 10.4444 12.9628 10.4444C12.8247 10.4444 12.7128 10.5564 12.7128 10.6944L12.7128 12.6389C12.7128 12.777 12.8247 12.8889 12.9628 12.8889C13.1009 12.8889 13.2128 12.777 13.2128 12.6389L13.2128 10.6944ZM13.2128 14.5833C13.2128 14.4453 13.1009 14.3333 12.9628 14.3333C12.8247 14.3333 12.7128 14.4453 12.7128 14.5833V16.5278C12.7128 16.6658 12.8247 16.7778 12.9628 16.7778C13.1009 16.7778 13.2128 16.6658 13.2128 16.5278V14.5833ZM13.2128 18.4722C13.2128 18.3342 13.1009 18.2222 12.9628 18.2222C12.8247 18.2222 12.7128 18.3342 12.7128 18.4722V20.4167C12.7128 20.5547 12.8247 20.6667 12.9628 20.6667C13.1009 20.6667 13.2128 20.5547 13.2128 20.4167V18.4722ZM13.2128 22.3611C13.2128 22.223 13.1009 22.1111 12.9628 22.1111C12.8247 22.1111 12.7128 22.223 12.7128 22.3611V24.3056C12.7128 24.4436 12.8247 24.5556 12.9628 24.5556C13.1009 24.5556 13.2128 24.4436 13.2128 24.3056V22.3611Z" fill="#3BA8FF"/>
</svg>
