<svg width="171" height="30" viewBox="0 0 171 30" fill="none" xmlns="http://www.w3.org/2000/svg">
<path d="M0.914062 29V0.71875H20.6406V6.73438H8.33594V11.8516H19.3906V17.8672H8.33594V29H0.914062ZM31.0312 0.71875V29H23.6094V0.71875H31.0312ZM34.0391 6.73438V0.71875H58.4141V6.73438H49.8984V29H42.5547V6.73438H34.0391ZM70.1328 29V0.71875H82.1641C88.4922 0.71875 92.6328 4.68359 92.6328 10.6406C92.6328 16.6953 88.375 20.5039 81.9297 20.4844H77.5547V29H70.1328ZM77.5547 14.7031H80.4453C83.2383 14.6836 84.8789 13.1211 84.8594 10.6406C84.8789 8.17969 83.2383 6.67578 80.4453 6.65625H77.5547V14.7031ZM99.0391 29H90.9922L100.406 0.71875H110.523L119.898 29H111.891L110.191 23.4531H100.719L99.0391 29ZM102.438 17.8281H108.473L105.562 8.33594H105.328L102.438 17.8281ZM136.891 9.46875C136.734 7.57422 135.484 6.44141 132.945 6.46094C130.504 6.44141 129.371 7.41797 129.352 8.72656C129.293 10.1914 130.621 10.9922 133.258 11.5391L135.602 12.0859C141.676 13.375 144.391 16.3242 144.43 20.6797C144.391 26.2266 140.133 29.332 132.984 29.3516C125.68 29.332 120.934 26.168 120.875 19.1953H127.984C128.102 21.832 129.918 23.2188 132.867 23.2188C135.426 23.2188 136.793 22.1836 136.812 20.6797C136.793 19.3125 135.621 18.5117 132.477 17.8281L129.625 17.2031C124.645 16.1094 121.598 13.6484 121.617 9.27344C121.578 3.92188 126.305 0.328125 132.945 0.328125C139.723 0.328125 144 3.98047 144.039 9.46875H136.891ZM162.711 9.46875C162.555 7.57422 161.305 6.44141 158.766 6.46094C156.324 6.44141 155.191 7.41797 155.172 8.72656C155.113 10.1914 156.441 10.9922 159.078 11.5391L161.422 12.0859C167.496 13.375 170.211 16.3242 170.25 20.6797C170.211 26.2266 165.953 29.332 158.805 29.3516C151.5 29.332 146.754 26.168 146.695 19.1953H153.805C153.922 21.832 155.738 23.2188 158.688 23.2188C161.246 23.2188 162.613 22.1836 162.633 20.6797C162.613 19.3125 161.441 18.5117 158.297 17.8281L155.445 17.2031C150.465 16.1094 147.418 13.6484 147.438 9.27344C147.398 3.92188 152.125 0.328125 158.766 0.328125C165.543 0.328125 169.82 3.98047 169.859 9.46875H162.711Z" fill="#2196F3"/>
</svg>
