<svg width="22" height="16" viewBox="0 0 22 16" fill="none" xmlns="http://www.w3.org/2000/svg">
<path d="M0 0.96C0 0.705392 0.105357 0.461212 0.292893 0.281177C0.480429 0.101142 0.734784 0 1 0H21C21.2652 0 21.5196 0.101142 21.7071 0.281177C21.8946 0.461212 22 0.705392 22 0.96C22 1.21461 21.8946 1.45879 21.7071 1.63882C21.5196 1.81886 21.2652 1.92 21 1.92H1C0.734784 1.92 0.480429 1.81886 0.292893 1.63882C0.105357 1.45879 0 1.21461 0 0.96ZM0 8C0 7.74539 0.105357 7.50121 0.292893 7.32118C0.480429 7.14114 0.734784 7.04 1 7.04H21C21.2652 7.04 21.5196 7.14114 21.7071 7.32118C21.8946 7.50121 22 7.74539 22 8C22 8.25461 21.8946 8.49879 21.7071 8.67882C21.5196 8.85886 21.2652 8.96 21 8.96H1C0.734784 8.96 0.480429 8.85886 0.292893 8.67882C0.105357 8.49879 0 8.25461 0 8ZM0 15.04C0 14.7854 0.105357 14.5412 0.292893 14.3612C0.480429 14.1811 0.734784 14.08 1 14.08H21C21.2652 14.08 21.5196 14.1811 21.7071 14.3612C21.8946 14.5412 22 14.7854 22 15.04C22 15.2946 21.8946 15.5388 21.7071 15.7188C21.5196 15.8989 21.2652 16 21 16H1C0.734784 16 0.480429 15.8989 0.292893 15.7188C0.105357 15.5388 0 15.2946 0 15.04Z" fill="#2196F3"/>
</svg>
