<svg width="60" height="35" viewBox="0 0 60 35" fill="none" xmlns="http://www.w3.org/2000/svg">
<path d="M48.1601 15.906L48.4055 16.8971L40.5943 18.8575L40.3488 17.8664L42.3462 17.3651L42.0212 16.0531L40.9241 16.3285L40.2086 13.4402L45.0379 12.2282L44.8088 11.3032L39.9701 12.5175L39.7317 11.5548L45.7518 10.0439L46.4579 12.8944L41.6474 14.1017L41.8835 15.055L46.891 13.7983L47.1318 14.7705L45.9221 15.0741L46.2471 16.3861L48.1601 15.906ZM43.509 17.0733L45.0749 16.6803L44.75 15.3683L43.184 15.7613L43.509 17.0733Z" fill="#FF6161"/>
<path d="M33.06 13.0086C34.3083 12.7003 35.378 13.1788 35.6399 14.2159C35.8433 15.0571 35.3927 15.8519 34.5276 16.2796L34.683 16.9073C35.343 16.6966 35.9936 16.4681 36.595 16.2219L36.9062 17.0762C35.2251 17.829 33.2805 18.3621 31.854 18.7151L31.4959 17.7924C32.0867 17.6441 32.7747 17.4664 33.4968 17.2652L33.3296 16.5903C32.3405 16.638 31.552 16.1491 31.3451 15.2937C31.0833 14.2566 31.8046 13.3287 33.06 13.0086ZM33.5985 21.4554L32.9929 19.0107L34.1932 18.7095L34.5603 20.1914L39.3708 18.9841L39.6093 19.9469L33.5985 21.4554ZM32.461 15.0137C32.5814 15.5399 33.0923 15.7325 33.6983 15.5854C34.3113 15.4266 34.6444 15.0222 34.5146 14.4983C34.3814 13.9603 33.8963 13.7712 33.2844 13.9148C32.6819 14.076 32.3184 14.478 32.461 15.0137ZM37.6554 18.4522L36.0328 11.9016L37.2331 11.6004L37.9017 14.2999L38.9895 14.0269L39.2373 15.0274L38.1496 15.3004L38.8556 18.151L37.6554 18.4522Z" fill="#FF6161"/>
<path d="M28.6832 18.0571L28.9217 19.0198L21.1386 20.9731L20.9001 20.0104L22.6537 19.5703L22.3988 18.5415C21.7063 18.4195 21.2494 18.083 21.1126 17.5308C20.8555 16.4926 21.9167 15.5696 23.8144 15.0883C25.7004 14.62 27.0679 14.9335 27.3297 15.9706C27.4642 16.5334 27.2095 17.0534 26.6397 17.4872L26.8922 18.5066L28.6832 18.0571ZM22.5228 22.7412C22.2773 21.7501 23.2611 20.9167 25.133 20.4519C26.9745 19.9848 28.2318 20.2557 28.4867 21.2444C28.7286 22.2615 27.7425 23.0854 25.8999 23.5479C24.0291 24.0174 22.7741 23.7558 22.5228 22.7412ZM22.3598 17.2179C22.4673 17.6921 23.1974 17.7646 24.4012 17.4574C25.5933 17.1633 26.2089 16.7532 26.092 16.2812C25.9727 15.7998 25.2344 15.7144 24.0435 16.0133C22.8385 16.3157 22.2312 16.7388 22.3598 17.2179ZM23.7418 22.4352C23.8458 22.8753 24.4962 22.9477 25.6778 22.6512C26.8358 22.3605 27.3904 21.9857 27.2864 21.5457C27.1765 21.1221 26.5167 21.0721 25.3575 21.358C24.1771 21.6593 23.6319 22.0117 23.7418 22.4352ZM23.8633 19.2667L25.7013 18.8055L25.5224 18.0834C25.2505 18.1917 24.9492 18.2824 24.6257 18.3636C24.2928 18.4471 23.9787 18.5059 23.6845 18.5446L23.8633 19.2667Z" fill="#FF6161"/>
<path d="M15.2168 19.1812C15.5932 20.7209 16.6295 22.1101 18.1634 22.4319L17.6798 23.5759C16.6522 23.3476 15.8229 22.6534 15.2152 21.7081C15.1148 22.9113 14.684 23.9869 13.8374 24.7106L12.8558 23.9244C14.1386 22.8906 14.4116 21.0776 14.0165 19.4825L13.6985 18.1988L14.8988 17.8975L15.2168 19.1812ZM19.2539 25.2261L17.1264 16.6367L18.3266 16.3355L19.1473 19.6485L20.4038 19.3332L20.6563 20.3526L19.3998 20.6679L20.4542 24.9248L19.2539 25.2261Z" fill="#FF6161"/>
<path fill-rule="evenodd" clip-rule="evenodd" d="M44.6493 4.58409L11.0413 13.0186C6.26845 14.2164 3.36397 19.082 4.55398 23.8863C5.74399 28.6905 10.5779 31.6141 15.3507 30.4163L48.9587 21.9818C53.7316 20.784 56.636 15.9183 55.446 11.1141C54.256 6.30983 49.4221 3.38626 44.6493 4.58409ZM10.5625 11.0855C4.72899 12.5495 1.17907 18.4964 2.63353 24.3683C4.08798 30.2401 9.99604 33.8134 15.8296 32.3493L49.4375 23.9149C55.271 22.4508 58.8209 16.5039 57.3665 10.6321C55.912 4.76025 50.004 1.187 44.1705 2.65101L10.5625 11.0855Z" fill="#FF6161"/>
</svg>
