<svg width="32" height="32" viewBox="0 0 32 32" fill="none" xmlns="http://www.w3.org/2000/svg">
<g id="Group">
<path id="Vector" d="M1 16C1 17.9698 1.38799 19.9204 2.14181 21.7403C2.89563 23.5601 4.00052 25.2137 5.3934 26.6066C6.78628 27.9995 8.43986 29.1044 10.2597 29.8582C12.0796 30.612 14.0302 31 16 31C17.9698 31 19.9204 30.612 21.7403 29.8582C23.5601 29.1044 25.2137 27.9995 26.6066 26.6066C27.9995 25.2137 29.1044 23.5601 29.8582 21.7403C30.612 19.9204 31 17.9698 31 16C31 14.0302 30.612 12.0796 29.8582 10.2597C29.1044 8.43986 27.9995 6.78628 26.6066 5.3934C25.2137 4.00052 23.5601 2.89563 21.7403 2.14181C19.9204 1.38799 17.9698 1 16 1C14.0302 1 12.0796 1.38799 10.2597 2.14181C8.43986 2.89563 6.78628 4.00052 5.3934 5.3934C4.00052 6.78628 2.89563 8.43986 2.14181 10.2597C1.38799 12.0796 1 14.0302 1 16Z" stroke="white" stroke-width="2" stroke-linecap="round" stroke-linejoin="round"/>
<path id="Vector_2" d="M20.6667 10.9998C20.3647 10.4761 19.9261 10.0443 19.3976 9.75076C18.8692 9.45718 18.2708 9.31283 17.6667 9.33317H14.3333C13.4493 9.33317 12.6014 9.68436 11.9763 10.3095C11.3512 10.9346 11 11.7824 11 12.6665C11 13.5506 11.3512 14.3984 11.9763 15.0235C12.6014 15.6486 13.4493 15.9998 14.3333 15.9998H17.6667C18.5507 15.9998 19.3986 16.351 20.0237 16.9761C20.6488 17.6013 21 18.4491 21 19.3332C21 20.2172 20.6488 21.0651 20.0237 21.6902C19.3986 22.3153 18.5507 22.6665 17.6667 22.6665H14.3333C13.7292 22.6868 13.1308 22.5425 12.6024 22.2489C12.0739 21.9553 11.6353 21.5236 11.3333 20.9998M16 7.6665V24.3332" stroke="white" stroke-width="2" stroke-linecap="round" stroke-linejoin="round"/>
</g>
</svg>
