<svg width="29" height="28" viewBox="0 0 29 28" fill="none" xmlns="http://www.w3.org/2000/svg">
<g id="Frame">
<path id="Vector" d="M22.4551 6.125C22.4551 6.35706 22.3629 6.57962 22.1988 6.74372C22.0347 6.90781 21.8121 7 21.5801 7H17.8362L13.1691 21H16.3301C16.5621 21 16.7847 21.0922 16.9488 21.2563C17.1129 21.4204 17.2051 21.6429 17.2051 21.875C17.2051 22.1071 17.1129 22.3296 16.9488 22.4937C16.7847 22.6578 16.5621 22.75 16.3301 22.75H7.58008C7.34801 22.75 7.12545 22.6578 6.96136 22.4937C6.79727 22.3296 6.70508 22.1071 6.70508 21.875C6.70508 21.6429 6.79727 21.4204 6.96136 21.2563C7.12545 21.0922 7.34801 21 7.58008 21H11.324L15.991 7H12.8301C12.598 7 12.3755 6.90781 12.2114 6.74372C12.0473 6.57962 11.9551 6.35706 11.9551 6.125C11.9551 5.89294 12.0473 5.67038 12.2114 5.50628C12.3755 5.34219 12.598 5.25 12.8301 5.25H21.5801C21.8121 5.25 22.0347 5.34219 22.1988 5.50628C22.3629 5.67038 22.4551 5.89294 22.4551 6.125Z" fill="black"/>
</g>
</svg>
