<svg width="29" height="28" viewBox="0 0 29 28" fill="none" xmlns="http://www.w3.org/2000/svg">
<g id="Frame">
<path id="Vector" d="M7.20711 19.1666C7.31109 19.2157 7.42372 19.2437 7.53855 19.2492C7.65337 19.2547 7.76816 19.2375 7.87633 19.1985C7.98451 19.1596 8.08396 19.0998 8.169 19.0225C8.25404 18.9451 8.32301 18.8517 8.37195 18.7477L10.1941 14.8748H18.966L20.7882 18.7477C20.8372 18.8517 20.9062 18.945 20.9912 19.0224C21.0763 19.0997 21.1757 19.1595 21.2839 19.1984C21.392 19.2373 21.5068 19.2545 21.6216 19.2491C21.7364 19.2436 21.8491 19.2156 21.953 19.1666C22.057 19.1177 22.1504 19.0487 22.2277 18.9636C22.305 18.8786 22.3648 18.7791 22.4037 18.671C22.4426 18.5628 22.4599 18.448 22.4544 18.3332C22.4489 18.2184 22.4209 18.1058 22.372 18.0018L15.372 3.12679C15.3013 2.97647 15.1893 2.84936 15.0491 2.76033C14.9088 2.6713 14.7462 2.62402 14.5801 2.62402C14.414 2.62402 14.2513 2.6713 14.1111 2.76033C13.9709 2.84936 13.8589 2.97647 13.7882 3.12679L6.7882 18.0018C6.73918 18.1058 6.71113 18.2184 6.70566 18.3332C6.70018 18.4481 6.71738 18.5628 6.75629 18.671C6.79519 18.7792 6.85503 18.8786 6.93238 18.9637C7.00974 19.0487 7.10309 19.1177 7.20711 19.1666ZM14.5801 5.55491L18.1424 13.1248H11.0177L14.5801 5.55491ZM25.0801 23.6248C25.0801 23.8568 24.9879 24.0794 24.8238 24.2435C24.6597 24.4076 24.4371 24.4998 24.2051 24.4998H4.95508C4.72301 24.4998 4.50045 24.4076 4.33636 24.2435C4.17227 24.0794 4.08008 23.8568 4.08008 23.6248C4.08008 23.3927 4.17227 23.1701 4.33636 23.006C4.50045 22.8419 4.72301 22.7498 4.95508 22.7498H24.2051C24.4371 22.7498 24.6597 22.8419 24.8238 23.006C24.9879 23.1701 25.0801 23.3927 25.0801 23.6248Z" fill="black"/>
</g>
</svg>
