<svg width="24" height="24" viewBox="0 0 24 24" fill="none" xmlns="http://www.w3.org/2000/svg">
<g id="Mask group">
<mask id="mask0_667_47026" style="mask-type:alpha" maskUnits="userSpaceOnUse" x="0" y="0" width="24" height="24">
<rect id="Rectangle 253" width="24" height="24" fill="#D9D9D9"/>
</mask>
<g mask="url(#mask0_667_47026)">
<g id="Group">
<path id="Vector" d="M2.48242 11.9829C2.48242 13.2305 2.72815 14.4658 3.20557 15.6184C3.68299 16.771 4.38275 17.8183 5.26491 18.7004C6.14706 19.5826 7.19434 20.2823 8.34693 20.7598C9.49952 21.2372 10.7349 21.4829 11.9824 21.4829C13.23 21.4829 14.4653 21.2372 15.6179 20.7598C16.7705 20.2823 17.8178 19.5826 18.6999 18.7004C19.5821 17.8183 20.2819 16.771 20.7593 15.6184C21.2367 14.4658 21.4824 13.2305 21.4824 11.9829C21.4824 10.7354 21.2367 9.50001 20.7593 8.34742C20.2819 7.19482 19.5821 6.14755 18.6999 5.2654C17.8178 4.38324 16.7705 3.68347 15.6179 3.20605C14.4653 2.72864 13.23 2.48291 11.9824 2.48291C10.7349 2.48291 9.49952 2.72864 8.34693 3.20605C7.19434 3.68347 6.14706 4.38324 5.26491 5.2654C4.38275 6.14755 3.68299 7.19482 3.20557 8.34742C2.72815 9.50001 2.48242 10.7354 2.48242 11.9829Z" fill="#9F9F9F"/>
<g id="Vector_2">
<path d="M14.9367 8.81619C14.7455 8.48449 14.4676 8.21104 14.133 8.02511C13.7983 7.83917 13.4193 7.74775 13.0367 7.76063H10.9256C10.3657 7.76063 9.82869 7.98305 9.43278 8.37896C9.03687 8.77487 8.81445 9.31184 8.81445 9.87174C8.81445 10.4316 9.03687 10.9686 9.43278 11.3645C9.82869 11.7604 10.3657 11.9829 10.9256 11.9829H13.0367C13.5966 11.9829 14.1335 12.2053 14.5295 12.6012C14.9254 12.9971 15.1478 13.5341 15.1478 14.094C15.1478 14.6539 14.9254 15.1908 14.5295 15.5867C14.1335 15.9827 13.5966 16.2051 13.0367 16.2051H10.9256C10.5429 16.218 10.164 16.1265 9.82928 15.9406C9.4946 15.7547 9.21678 15.4812 9.02556 15.1495M11.9811 6.70508V17.2606V6.70508Z" fill="#9F9F9F"/>
<path d="M14.9367 8.81619C14.7455 8.48449 14.4676 8.21104 14.133 8.02511C13.7983 7.83917 13.4193 7.74775 13.0367 7.76063H10.9256C10.3657 7.76063 9.82869 7.98305 9.43278 8.37896C9.03687 8.77487 8.81445 9.31184 8.81445 9.87174C8.81445 10.4316 9.03687 10.9686 9.43278 11.3645C9.82869 11.7604 10.3657 11.9829 10.9256 11.9829H13.0367C13.5966 11.9829 14.1335 12.2053 14.5295 12.6012C14.9254 12.9971 15.1478 13.5341 15.1478 14.094C15.1478 14.6539 14.9254 15.1908 14.5295 15.5867C14.1335 15.9827 13.5966 16.2051 13.0367 16.2051H10.9256C10.5429 16.218 10.164 16.1265 9.82928 15.9406C9.4946 15.7547 9.21678 15.4812 9.02556 15.1495M11.9811 6.70508V17.2606" stroke="white" stroke-linecap="round" stroke-linejoin="round"/>
</g>
</g>
</g>
</g>
</svg>
