<svg width="29" height="28" viewBox="0 0 29 28" fill="none" xmlns="http://www.w3.org/2000/svg">
<g id="Frame">
<path id="Vector" d="M25.0801 14C25.0801 14.2321 24.9879 14.4546 24.8238 14.6187C24.6597 14.7828 24.4371 14.875 24.2051 14.875H19.8224C20.8276 15.6527 21.5801 16.7563 21.5801 18.375C21.5801 19.8341 20.8145 21.1859 19.4199 22.1802C18.1162 23.112 16.3968 23.625 14.5801 23.625C12.7634 23.625 11.044 23.112 9.74023 22.1802C8.3457 21.1859 7.58008 19.8341 7.58008 18.375C7.58008 18.1429 7.67227 17.9204 7.83636 17.7563C8.00045 17.5922 8.22301 17.5 8.45508 17.5C8.68714 17.5 8.9097 17.5922 9.0738 17.7563C9.23789 17.9204 9.33008 18.1429 9.33008 18.375C9.33008 20.2727 11.7363 21.875 14.5801 21.875C17.4238 21.875 19.8301 20.2727 19.8301 18.375C19.8301 16.7508 18.6773 15.7959 15.5896 14.875H4.95508C4.72301 14.875 4.50045 14.7828 4.33636 14.6187C4.17227 14.4546 4.08008 14.2321 4.08008 14C4.08008 13.7679 4.17227 13.5454 4.33636 13.3813C4.50045 13.2172 4.72301 13.125 4.95508 13.125H24.2051C24.4371 13.125 24.6597 13.2172 24.8238 13.3813C24.9879 13.5454 25.0801 13.7679 25.0801 14ZM8.92867 11.375C9.067 11.3751 9.20338 11.3425 9.32664 11.2797C9.4499 11.2169 9.55651 11.1258 9.63774 11.0138C9.71896 10.9018 9.77248 10.7722 9.79391 10.6356C9.81534 10.4989 9.80407 10.3591 9.76102 10.2277C9.69839 10.033 9.66773 9.82947 9.67023 9.625C9.67023 7.63 11.7812 6.125 14.5801 6.125C16.6407 6.125 18.3163 6.93656 19.0645 8.29609C19.1826 8.48648 19.3694 8.62427 19.5861 8.68106C19.8029 8.73785 20.0332 8.7093 20.2295 8.60131C20.4259 8.49332 20.5733 8.31411 20.6415 8.10063C20.7096 7.88715 20.6932 7.65567 20.5957 7.45391C19.538 5.52563 17.2893 4.375 14.5801 4.375C10.7837 4.375 7.92023 6.63141 7.92023 9.625C7.91837 10.0144 7.97818 10.4016 8.09742 10.7723C8.15481 10.9476 8.26609 11.1002 8.41536 11.2084C8.56464 11.3166 8.74429 11.3749 8.92867 11.375Z" fill="black"/>
</g>
</svg>
