<svg width="29" height="28" viewBox="0 0 29 28" fill="none" xmlns="http://www.w3.org/2000/svg">
<g id="Frame">
<path id="Vector" d="M20.1013 12.6547C20.7925 11.9894 21.269 11.1327 21.4698 10.1947C21.6705 9.25658 21.5864 8.27991 21.2281 7.39002C20.8698 6.50013 20.2537 5.73763 19.4589 5.2004C18.6641 4.66318 17.7269 4.37574 16.7676 4.375H9.33008C9.09801 4.375 8.87545 4.46719 8.71136 4.63128C8.54727 4.79538 8.45508 5.01794 8.45508 5.25V21.875C8.45508 22.1071 8.54727 22.3296 8.71136 22.4937C8.87545 22.6578 9.09801 22.75 9.33008 22.75H18.0801C19.2936 22.75 20.4696 22.3296 21.4081 21.5604C22.3466 20.7912 22.9897 19.7206 23.2279 18.5307C23.4661 17.3408 23.2848 16.1052 22.7148 15.0339C22.1448 13.9626 21.2213 13.1219 20.1013 12.6547ZM10.2051 6.125H16.7676C17.5798 6.125 18.3588 6.44766 18.9331 7.02199C19.5074 7.59632 19.8301 8.37527 19.8301 9.1875C19.8301 9.99973 19.5074 10.7787 18.9331 11.353C18.3588 11.9273 17.5798 12.25 16.7676 12.25H10.2051V6.125ZM18.0801 21H10.2051V14H18.0801C19.0083 14 19.8986 14.3687 20.555 15.0251C21.2113 15.6815 21.5801 16.5717 21.5801 17.5C21.5801 18.4283 21.2113 19.3185 20.555 19.9749C19.8986 20.6313 19.0083 21 18.0801 21Z" fill="black"/>
</g>
</svg>
