<svg width="8" height="11" viewBox="0 0 8 11" fill="none" xmlns="http://www.w3.org/2000/svg">
<mask id="path-1-inside-1_667_42228" fill="white">
<path fill-rule="evenodd" clip-rule="evenodd" d="M5.32049 9.89161C6.48565 8.50141 8 6.2947 8 4.21591C8 1.97681 6.20914 0.499512 4 0.499512C1.79086 0.499512 0 2.31466 0 4.55376C0 6.23281 1.54365 8.43338 2.71306 9.85956C3.39861 10.6956 4.62598 10.7203 5.32049 9.89161ZM3.99946 6.3557C4.9813 6.3557 5.77724 5.54897 5.77724 4.55382C5.77724 3.55866 4.9813 2.75193 3.99946 2.75193C3.01762 2.75193 2.22168 3.55866 2.22168 4.55382C2.22168 5.54897 3.01762 6.3557 3.99946 6.3557Z"/>
</mask>
<path fill-rule="evenodd" clip-rule="evenodd" d="M5.32049 9.89161C6.48565 8.50141 8 6.2947 8 4.21591C8 1.97681 6.20914 0.499512 4 0.499512C1.79086 0.499512 0 2.31466 0 4.55376C0 6.23281 1.54365 8.43338 2.71306 9.85956C3.39861 10.6956 4.62598 10.7203 5.32049 9.89161ZM3.99946 6.3557C4.9813 6.3557 5.77724 5.54897 5.77724 4.55382C5.77724 3.55866 4.9813 2.75193 3.99946 2.75193C3.01762 2.75193 2.22168 3.55866 2.22168 4.55382C2.22168 5.54897 3.01762 6.3557 3.99946 6.3557Z" fill="#81C7FF"/>
<path d="M5.32049 9.89161L4.55408 9.24927L5.32049 9.89161ZM2.71306 9.85956L1.93978 10.4936H1.93978L2.71306 9.85956ZM7 4.21591C7 5.02555 6.70012 5.92927 6.21436 6.84228C5.73403 7.74506 5.11047 8.58541 4.55408 9.24927L6.08691 10.534C6.69567 9.80761 7.41187 8.84951 7.98 7.78169C8.5427 6.72409 9 5.48506 9 4.21591H7ZM4 1.49951C5.76199 1.49951 7 2.62867 7 4.21591H9C9 1.32494 6.65628 -0.500488 4 -0.500488V1.49951ZM1 4.55376C1 2.8542 2.3558 1.49951 4 1.49951V-0.500488C1.22592 -0.500488 -1 1.77512 -1 4.55376H1ZM3.48634 9.22549C2.92025 8.53512 2.28087 7.67757 1.78787 6.8082C1.279 5.91085 1 5.12746 1 4.55376H-1C-1 5.6591 -0.507176 6.81553 0.0481313 7.79477C0.619305 8.80199 1.33645 9.75782 1.93978 10.4936L3.48634 9.22549ZM4.55408 9.24927C4.27462 9.5827 3.7871 9.59229 3.48634 9.22549L1.93978 10.4936C3.01012 11.799 4.97734 11.8578 6.08691 10.534L4.55408 9.24927ZM4.77724 4.55382C4.77724 5.00943 4.41635 5.3557 3.99946 5.3557V7.3557C5.54624 7.3557 6.77724 6.08851 6.77724 4.55382H4.77724ZM3.99946 3.75193C4.41635 3.75193 4.77724 4.0982 4.77724 4.55382H6.77724C6.77724 3.01912 5.54624 1.75193 3.99946 1.75193V3.75193ZM3.22168 4.55382C3.22168 4.0982 3.58256 3.75193 3.99946 3.75193V1.75193C2.45268 1.75193 1.22168 3.01912 1.22168 4.55382H3.22168ZM3.99946 5.3557C3.58256 5.3557 3.22168 5.00943 3.22168 4.55382H1.22168C1.22168 6.08851 2.45268 7.3557 3.99946 7.3557V5.3557Z" fill="#81C7FF" mask="url(#path-1-inside-1_667_42228)"/>
</svg>
