<svg width="20" height="13" viewBox="0 0 20 13" fill="none" xmlns="http://www.w3.org/2000/svg">
<path fill-rule="evenodd" clip-rule="evenodd" d="M20 0.5H0V4.5C0.974464 4.50021 1.76437 5.39556 1.76437 6.5C1.76437 7.60444 0.974464 8.49979 0 8.5V12.5H20V8.5H19.9997C19.025 8.5 18.235 7.60457 18.235 6.5C18.235 5.39543 19.025 4.5 19.9997 4.5H20V0.5ZM5.9375 1.76317C6.11009 1.76317 6.25 1.62179 6.25 1.44738C6.25 1.27298 6.11009 1.13159 5.9375 1.13159C5.76491 1.13159 5.625 1.27298 5.625 1.44738C5.625 1.62179 5.76491 1.76317 5.9375 1.76317ZM6.25 2.7105C6.25 2.88491 6.11009 3.02629 5.9375 3.02629C5.76491 3.02629 5.625 2.88491 5.625 2.7105C5.625 2.5361 5.76491 2.39471 5.9375 2.39471C6.11009 2.39471 6.25 2.5361 6.25 2.7105ZM5.9375 4.28948C6.11009 4.28948 6.25 4.14809 6.25 3.97369C6.25 3.79928 6.11009 3.6579 5.9375 3.6579C5.76491 3.6579 5.625 3.79928 5.625 3.97369C5.625 4.14809 5.76491 4.28948 5.9375 4.28948ZM6.25 5.23681C6.25 5.41122 6.11009 5.5526 5.9375 5.5526C5.76491 5.5526 5.625 5.41122 5.625 5.23681C5.625 5.0624 5.76491 4.92102 5.9375 4.92102C6.11009 4.92102 6.25 5.0624 6.25 5.23681ZM5.9375 6.81578C6.11009 6.81578 6.25 6.6744 6.25 6.49999C6.25 6.32559 6.11009 6.1842 5.9375 6.1842C5.76491 6.1842 5.625 6.32559 5.625 6.49999C5.625 6.6744 5.76491 6.81578 5.9375 6.81578ZM6.25 7.76318C6.25 7.93758 6.11009 8.07897 5.9375 8.07897C5.76491 8.07897 5.625 7.93758 5.625 7.76318C5.625 7.58877 5.76491 7.44739 5.9375 7.44739C6.11009 7.44739 6.25 7.58877 6.25 7.76318ZM5.9375 9.34215C6.11009 9.34215 6.25 9.20077 6.25 9.02636C6.25 8.85196 6.11009 8.71057 5.9375 8.71057C5.76491 8.71057 5.625 8.85196 5.625 9.02636C5.625 9.20077 5.76491 9.34215 5.9375 9.34215ZM6.25 10.2895C6.25 10.4639 6.11009 10.6053 5.9375 10.6053C5.76491 10.6053 5.625 10.4639 5.625 10.2895C5.625 10.1151 5.76491 9.97369 5.9375 9.97369C6.11009 9.97369 6.25 10.1151 6.25 10.2895ZM5.9375 11.8684C6.11009 11.8684 6.25 11.727 6.25 11.5526C6.25 11.3782 6.11009 11.2368 5.9375 11.2368C5.76491 11.2368 5.625 11.3782 5.625 11.5526C5.625 11.727 5.76491 11.8684 5.9375 11.8684Z" fill="#3BA8FF"/>
</svg>
