<svg width="340" height="70" viewBox="0 0 340 70" fill="none" xmlns="http://www.w3.org/2000/svg">
<path fill-rule="evenodd" clip-rule="evenodd" d="M87.0001 66C89.2092 66 91.0001 67.7909 91.0001 70L335 70C337.761 70 340 67.7614 340 65V5C340 2.23858 337.761 0 335 0L91.0001 4.57764e-05C91.0001 2.20918 89.2092 4.00005 87.0001 4.00005C84.791 4.00005 83.0001 2.20918 83.0001 4.57764e-05L5 0C2.23858 0 0 2.23858 0 5V65C0 67.7614 2.23858 70 5 70L83.0001 70C83.0001 67.7909 84.791 66 87.0001 66ZM87.1143 49.0292C87.4719 49.0292 87.7618 49.3191 87.7618 49.6767C87.7618 50.0343 87.4719 50.3242 87.1143 50.3242C86.7567 50.3242 86.4668 50.0343 86.4668 49.6767C86.4668 49.3191 86.7567 49.0292 87.1143 49.0292ZM87.7618 27.6621C87.7618 27.3045 87.4719 27.0146 87.1143 27.0146C86.7567 27.0146 86.4668 27.3045 86.4668 27.6621C86.4668 28.0196 86.7567 28.3095 87.1143 28.3095C87.4719 28.3095 87.7618 28.0196 87.7618 27.6621ZM87.1143 56.3671C87.4719 56.3671 87.7618 56.657 87.7618 57.0146C87.7618 57.3722 87.4719 57.6621 87.1143 57.6621C86.7567 57.6621 86.4668 57.3722 86.4668 57.0146C86.4668 56.657 86.7567 56.3671 87.1143 56.3671ZM87.7618 35C87.7618 34.6424 87.4719 34.3525 87.1143 34.3525C86.7567 34.3525 86.4669 34.6424 86.4669 35C86.4669 35.3576 86.7567 35.6474 87.1143 35.6474C87.4719 35.6474 87.7618 35.3576 87.7618 35ZM87.1143 12.338C87.4719 12.338 87.7618 12.6279 87.7618 12.9855C87.7618 13.3431 87.4719 13.633 87.1143 13.633C86.7567 13.633 86.4669 13.3431 86.4669 12.9855C86.4669 12.6279 86.7567 12.338 87.1143 12.338ZM87.7618 64.3525C87.7618 63.9949 87.4719 63.705 87.1143 63.705C86.7567 63.705 86.4668 63.9949 86.4668 64.3525C86.4668 64.7101 86.7567 65 87.1143 65C87.4719 65 87.7618 64.7101 87.7618 64.3525ZM87.1143 41.6904C87.4719 41.6904 87.7618 41.9802 87.7618 42.3378C87.7618 42.6954 87.4719 42.9853 87.1143 42.9853C86.7567 42.9853 86.4668 42.6954 86.4668 42.3378C86.4668 41.9802 86.7567 41.6904 87.1143 41.6904ZM87.7618 20.3232C87.7618 19.9656 87.4719 19.6757 87.1143 19.6757C86.7567 19.6757 86.4668 19.9656 86.4668 20.3232C86.4668 20.6808 86.7567 20.9707 87.1143 20.9707C87.4719 20.9707 87.7618 20.6808 87.7618 20.3232ZM87.1143 52.698C87.4719 52.698 87.7618 52.9879 87.7618 53.3455C87.7618 53.703 87.4719 53.9929 87.1143 53.9929C86.7567 53.9929 86.4669 53.703 86.4669 53.3455C86.4669 52.9879 86.7567 52.698 87.1143 52.698ZM87.7618 31.331C87.7618 30.9734 87.4719 30.6835 87.1143 30.6835C86.7567 30.6835 86.4669 30.9734 86.4669 31.331C86.4669 31.6886 86.7567 31.9785 87.1143 31.9785C87.4719 31.9785 87.7618 31.6886 87.7618 31.331ZM87.1143 8.66906C87.4719 8.66906 87.7618 8.95895 87.7618 9.31655C87.7618 9.67414 87.4719 9.96403 87.1143 9.96403C86.7567 9.96403 86.4669 9.67414 86.4669 9.31655C86.4669 8.95895 86.7567 8.66906 87.1143 8.66906ZM87.7618 60.6835C87.7618 60.3259 87.4719 60.036 87.1143 60.036C86.7567 60.036 86.4669 60.3259 86.4669 60.6835C86.4669 61.0411 86.7567 61.331 87.1143 61.331C87.4719 61.331 87.7618 61.0411 87.7618 60.6835ZM87.1143 38.0214C87.4719 38.0214 87.7618 38.3113 87.7618 38.6689C87.7618 39.0265 87.4719 39.3164 87.1143 39.3164C86.7567 39.3164 86.4668 39.0265 86.4668 38.6689C86.4668 38.3113 86.7567 38.0214 87.1143 38.0214ZM87.7618 16.6542C87.7618 16.2966 87.4719 16.0068 87.1143 16.0068C86.7567 16.0068 86.4668 16.2966 86.4668 16.6542C86.4668 17.0118 86.7567 17.3017 87.1143 17.3017C87.4719 17.3017 87.7618 17.0118 87.7618 16.6542ZM87.1143 45.3603C87.4719 45.3603 87.7618 45.6502 87.7618 46.0078C87.7618 46.3654 87.4719 46.6552 87.1143 46.6552C86.7567 46.6552 86.4668 46.3654 86.4668 46.0078C86.4668 45.6502 86.7567 45.3603 87.1143 45.3603ZM87.7618 23.9931C87.7618 23.6355 87.4719 23.3456 87.1143 23.3456C86.7567 23.3456 86.4668 23.6355 86.4668 23.9931C86.4668 24.3507 86.7567 24.6406 87.1143 24.6406C87.4719 24.6406 87.7618 24.3507 87.7618 23.9931ZM87.1143 4.99988C87.4719 4.99988 87.7618 5.28976 87.7618 5.64735C87.7618 6.00495 87.4719 6.29484 87.1143 6.29484C86.7567 6.29484 86.4669 6.00495 86.4669 5.64735C86.4669 5.28976 86.7567 4.99988 87.1143 4.99988Z" fill="#3BA8FF"/>
</svg>
