<svg width="24" height="24" viewBox="0 0 24 24" fill="none" xmlns="http://www.w3.org/2000/svg">
<g id="Mask group">
<mask id="mask0_667_47040" style="mask-type:alpha" maskUnits="userSpaceOnUse" x="0" y="0" width="24" height="24">
<rect id="Rectangle 254" width="24" height="24" fill="#D9D9D9"/>
</mask>
<g mask="url(#mask0_667_47040)">
<g id="Group 1000001718">
<path id="Vector 977" d="M17.209 16.6274L20.6192 20.1575" stroke="#9F9F9F" stroke-linecap="round"/>
<path id="Vector 975" d="M17.209 7.04614L20.6192 3.51611" stroke="#9F9F9F" stroke-linecap="round"/>
<path id="Vector 976" d="M17.209 12.0889H21.5936" stroke="#9F9F9F" stroke-linecap="round"/>
<g id="Union">
<mask id="path-5-inside-1_667_47040" fill="white">
<path fill-rule="evenodd" clip-rule="evenodd" d="M9.03954 15.7734C8.94521 15.6748 8.81465 15.619 8.67815 15.619H3.09375C2.81761 15.619 2.59375 15.3951 2.59375 15.119V9.0589C2.59375 8.78275 2.81761 8.5589 3.09375 8.5589H8.67821C8.8147 8.5589 8.94526 8.5031 9.03959 8.40444L13.4244 3.81855C13.736 3.49267 14.2858 3.71322 14.2858 4.16409L14.2858 20.0138C14.2858 20.4647 13.736 20.6852 13.4244 20.3594L9.03954 15.7734Z"/>
</mask>
<path fill-rule="evenodd" clip-rule="evenodd" d="M9.03954 15.7734C8.94521 15.6748 8.81465 15.619 8.67815 15.619H3.09375C2.81761 15.619 2.59375 15.3951 2.59375 15.119V9.0589C2.59375 8.78275 2.81761 8.5589 3.09375 8.5589H8.67821C8.8147 8.5589 8.94526 8.5031 9.03959 8.40444L13.4244 3.81855C13.736 3.49267 14.2858 3.71322 14.2858 4.16409L14.2858 20.0138C14.2858 20.4647 13.736 20.6852 13.4244 20.3594L9.03954 15.7734Z" fill="#9F9F9F"/>
<path d="M14.2858 20.0138H15.2858H14.2858ZM13.4244 20.3594L14.1472 19.6683L13.4244 20.3594ZM14.2858 4.16409L15.2858 4.16409L14.2858 4.16409ZM9.03954 15.7734L9.76231 15.0823L9.03954 15.7734ZM8.67815 14.619H3.09375V16.619H8.67815V14.619ZM3.59375 15.119V9.0589H1.59375V15.119H3.59375ZM3.09375 9.5589H8.67821V7.5589H3.09375V9.5589ZM9.76236 9.09553L14.1472 4.50963L12.7017 3.12746L8.31682 7.71335L9.76236 9.09553ZM13.2858 4.16409L13.2858 20.0138H15.2858L15.2858 4.16409L13.2858 4.16409ZM14.1472 19.6683L9.76231 15.0823L8.31677 16.4645L12.7017 21.0504L14.1472 19.6683ZM13.2858 20.0138C13.2858 19.5629 13.8356 19.3424 14.1472 19.6683L12.7017 21.0504C13.6365 22.0281 15.2858 21.3665 15.2858 20.0138H13.2858ZM14.1472 4.50963C13.8356 4.83552 13.2858 4.61496 13.2858 4.16409L15.2858 4.16409C15.2858 2.81147 13.6365 2.14982 12.7017 3.12746L14.1472 4.50963ZM8.67821 9.5589C9.08769 9.5589 9.47938 9.39149 9.76236 9.09553L8.31682 7.71335C8.41115 7.6147 8.54171 7.5589 8.67821 7.5589V9.5589ZM3.59375 9.0589C3.59375 9.33504 3.36989 9.5589 3.09375 9.5589V7.5589C2.26532 7.5589 1.59375 8.23047 1.59375 9.0589H3.59375ZM3.09375 14.619C3.36989 14.619 3.59375 14.8428 3.59375 15.119H1.59375C1.59375 15.9474 2.26533 16.619 3.09375 16.619V14.619ZM8.67815 16.619C8.54166 16.619 8.4111 16.5632 8.31677 16.4645L9.76231 15.0823C9.47932 14.7864 9.08764 14.619 8.67815 14.619V16.619Z" fill="#9F9F9F" mask="url(#path-5-inside-1_667_47040)"/>
</g>
</g>
</g>
</g>
</svg>
