<svg width="159" height="111" viewBox="0 0 159 111" fill="none" xmlns="http://www.w3.org/2000/svg">
<rect x="44" width="72" height="72" rx="36" fill="#D5D5D5"/>
<path fill-rule="evenodd" clip-rule="evenodd" d="M101.937 23H58.0625V31.6666C60.2002 31.6671 61.9331 33.607 61.9331 36C61.9331 38.3929 60.2002 40.3328 58.0625 40.3333V49H101.937V40.3333H101.937C99.7987 40.3333 98.0654 38.3932 98.0654 36C98.0654 33.6067 99.7987 31.6666 101.937 31.6666H101.937V23ZM71.0879 25.7368C71.4665 25.7368 71.7734 25.4305 71.7734 25.0526C71.7734 24.6747 71.4665 24.3684 71.0879 24.3684C70.7093 24.3684 70.4023 24.6747 70.4023 25.0526C70.4023 25.4305 70.7093 25.7368 71.0879 25.7368ZM71.7734 27.7895C71.7734 28.1673 71.4665 28.4737 71.0879 28.4737C70.7093 28.4737 70.4023 28.1673 70.4023 27.7895C70.4023 27.4116 70.7093 27.1052 71.0879 27.1052C71.4665 27.1052 71.7734 27.4116 71.7734 27.7895ZM71.0879 31.2105C71.4665 31.2105 71.7734 30.9042 71.7734 30.5263C71.7734 30.1484 71.4665 29.8421 71.0879 29.8421C70.7093 29.8421 70.4023 30.1484 70.4023 30.5263C70.4023 30.9042 70.7093 31.2105 71.0879 31.2105ZM71.7734 33.2631C71.7734 33.641 71.4665 33.9473 71.0879 33.9473C70.7093 33.9473 70.4023 33.641 70.4023 33.2631C70.4023 32.8852 70.7093 32.5789 71.0879 32.5789C71.4665 32.5789 71.7734 32.8852 71.7734 33.2631ZM71.0879 36.6842C71.4665 36.6842 71.7734 36.3778 71.7734 36C71.7734 35.6221 71.4665 35.3157 71.0879 35.3157C70.7093 35.3157 70.4023 35.6221 70.4023 36C70.4023 36.3778 70.7093 36.6842 71.0879 36.6842ZM71.7734 38.7369C71.7734 39.1148 71.4665 39.4211 71.0879 39.4211C70.7093 39.4211 70.4023 39.1148 70.4023 38.7369C70.4023 38.359 70.7093 38.0527 71.0879 38.0527C71.4665 38.0527 71.7734 38.359 71.7734 38.7369ZM71.0879 42.1579C71.4665 42.1579 71.7734 41.8516 71.7734 41.4737C71.7734 41.0958 71.4665 40.7895 71.0879 40.7895C70.7093 40.7895 70.4023 41.0958 70.4023 41.4737C70.4023 41.8516 70.7093 42.1579 71.0879 42.1579ZM71.7734 44.2105C71.7734 44.5884 71.4665 44.8948 71.0879 44.8948C70.7093 44.8948 70.4023 44.5884 70.4023 44.2105C70.4023 43.8327 70.7093 43.5263 71.0879 43.5263C71.4665 43.5263 71.7734 43.8327 71.7734 44.2105ZM71.0879 47.6316C71.4665 47.6316 71.7734 47.3253 71.7734 46.9474C71.7734 46.5695 71.4665 46.2632 71.0879 46.2632C70.7093 46.2632 70.4023 46.5695 70.4023 46.9474C70.4023 47.3253 70.7093 47.6316 71.0879 47.6316Z" fill="#F7F7F7"/>
<path d="M5.13281 99.0293C5.11914 101.196 6.38379 103.418 8.20898 104.307L7.40234 105.346C6.06934 104.648 5.03711 103.281 4.49707 101.647C3.9502 103.384 2.87695 104.854 1.48242 105.578L0.675781 104.525C2.55566 103.623 3.82715 101.271 3.83398 99.0293V96.9375H5.13281V99.0293ZM9.125 108.162V95.9121H10.4238V100.793H12.3926V101.9H10.4238V108.162H9.125ZM24.1504 101.887V102.939H12.9805V101.887H15.6602V100.239C14.71 99.8564 14.1768 99.2412 14.1836 98.4277C14.1768 96.9717 15.8652 96.124 18.5586 96.1309C21.2451 96.124 22.9268 96.9717 22.9336 98.4277C22.9268 99.2412 22.3936 99.8564 21.4434 100.246V101.887H24.1504ZM14.3066 105.947C14.3066 104.546 15.8926 103.773 18.5586 103.773C21.1904 103.773 22.7764 104.546 22.7832 105.947C22.7764 107.362 21.1904 108.135 18.5586 108.135C15.8926 108.135 14.3066 107.362 14.3066 105.947ZM15.5234 98.4277C15.5166 99.248 16.6514 99.7061 18.5586 99.7129C20.4521 99.7061 21.6006 99.248 21.5938 98.4277C21.6006 97.6074 20.4521 97.1357 18.5586 97.1289C16.6514 97.1357 15.5166 97.6074 15.5234 98.4277ZM15.6191 105.947C15.6123 106.713 16.6855 107.15 18.5586 107.137C20.4043 107.15 21.4844 106.713 21.4844 105.947C21.4844 105.195 20.4043 104.771 18.5586 104.771C16.6855 104.771 15.6123 105.195 15.6191 105.947ZM16.9727 101.887H20.1582V100.581C19.6797 100.656 19.1396 100.697 18.5586 100.697C17.9844 100.697 17.4512 100.656 16.9727 100.588V101.887ZM38.041 95.9121V100.793H39.9414V101.873H38.041V108.148H36.7422V95.9121H38.041ZM28.5117 104.881C31.5811 103.35 33.249 101.135 33.5156 98.2773H29.127V97.1973H34.8418C34.8281 100.738 33.2695 103.903 29.2363 105.893L28.5117 104.881ZM50.4961 99.2207V100.273H42.0879V96.1309H43.373V99.2207H50.4961ZM40.5977 102.639V101.572H51.7812V102.639H40.5977ZM41.9238 105.865C41.9238 104.437 43.5166 103.63 46.1758 103.637C48.8145 103.63 50.3936 104.437 50.4004 105.865C50.3936 107.301 48.8145 108.107 46.1758 108.107C43.5166 108.107 41.9238 107.301 41.9238 105.865ZM43.2363 105.865C43.2295 106.651 44.3027 107.103 46.1758 107.109C48.0215 107.103 49.1016 106.651 49.1016 105.865C49.1016 105.072 48.0215 104.655 46.1758 104.648C44.3027 104.655 43.2295 105.072 43.2363 105.865ZM62.3223 95.9258V99.8633H64.0996V100.943H62.3223V105.086H61.0234V95.9258H62.3223ZM52.7109 98.4004V97.3477H55.7188V95.9121H57.0176V97.3477H60.0117V98.4004H52.7109ZM53.3809 101.299C53.374 99.8975 54.584 98.9814 56.3613 98.9883C58.1182 98.9814 59.3281 99.8975 59.3281 101.299C59.3281 102.687 58.1182 103.589 56.3613 103.596C54.584 103.589 53.374 102.687 53.3809 101.299ZM54.5566 107.902V104.361H55.8555V106.85H62.8418V107.902H54.5566ZM54.6387 101.299C54.625 102.099 55.3223 102.591 56.3613 102.584C57.4004 102.591 58.0977 102.099 58.1113 101.299C58.0977 100.492 57.4004 99.9932 56.3613 99.9863C55.3223 99.9932 54.625 100.492 54.6387 101.299ZM78.7559 95.9121V108.162H77.5117V101.846H76.0625V107.533H74.832V96.1582H76.0625V100.779H77.5117V95.9121H78.7559ZM68.0781 104.115C68.4404 104.115 68.8574 104.115 69.3086 104.108V98.4688H68.3379V97.4023H74.0254V98.4688H73.0547V103.958C73.4648 103.917 73.8613 103.876 74.2305 103.828L74.2988 104.785C72.3711 105.154 69.8076 105.209 68.2285 105.209L68.0781 104.115ZM70.498 104.088C70.9492 104.074 71.4072 104.061 71.8652 104.033V98.4688H70.498V104.088ZM86.5352 97.6484C86.5352 99.6445 88.6611 101.531 91.0195 101.955L90.418 103.035C88.4561 102.611 86.6582 101.326 85.8652 99.6035C85.0586 101.319 83.2607 102.598 81.2988 103.035L80.7246 101.955C83.0488 101.518 85.1611 99.6445 85.168 97.6484V96.7188H86.5352V97.6484ZM80.3145 106.549V105.469H91.5254V106.549H80.3145ZM101.957 95.9121V100.793H103.857V101.873H101.957V108.148H100.658V95.9121H101.957ZM92.4277 104.881C95.4971 103.35 97.165 101.135 97.4316 98.2773H93.043V97.1973H98.7578C98.7441 100.738 97.1855 103.903 93.1523 105.893L92.4277 104.881ZM110.543 103.09V104.512H112.457V103.09H113.66V108.012H109.326V103.09H110.543ZM108.109 99.2617C108.103 97.5869 109.449 96.4316 111.322 96.4316C112.936 96.4316 114.187 97.3408 114.453 98.7148H116.846V95.9121H118.145V102.406H116.846V99.7812H114.46C114.207 101.183 112.949 102.112 111.322 102.105C109.449 102.112 108.103 100.95 108.109 99.2617ZM109.354 99.2617C109.347 100.321 110.167 101.046 111.322 101.053C112.457 101.046 113.264 100.321 113.264 99.2617C113.264 98.2158 112.457 97.5049 111.322 97.5117C110.167 97.5049 109.347 98.2158 109.354 99.2617ZM110.543 107H112.457V105.496H110.543V107ZM113.729 107.123C115.205 106.515 115.93 105.229 115.93 104.006V103.008H117.215V104.006C117.208 105.291 117.933 106.59 119.443 107.123L118.773 108.107C117.666 107.684 116.948 106.884 116.559 105.913C116.155 106.856 115.438 107.67 114.385 108.107L113.729 107.123ZM122.697 103.254V104.553H128.453V103.254H129.752V108.012H121.412V103.254H122.697ZM120.031 102.488V101.408H131.201V102.488H120.031ZM120.633 99.6309C123.005 99.3232 124.946 98.0176 124.953 96.5684V96.0488H126.279V96.5684C126.286 97.9766 128.241 99.3438 130.586 99.6309L130.121 100.656C128.139 100.383 126.409 99.4395 125.623 98.1338C124.83 99.4463 123.094 100.383 121.125 100.656L120.633 99.6309ZM122.697 106.973H128.453V105.564H122.697V106.973ZM142.303 95.9121V108.162H141.004V95.9121H142.303ZM132.883 105.045V97.1016H134.168V103.924C135.959 103.917 137.839 103.76 139.801 103.363L139.979 104.457C137.812 104.901 135.843 105.052 133.908 105.045H132.883ZM153.773 95.9121V100.656H155.742V101.723H153.773V108.189H152.475V95.9121H153.773ZM144.75 105.141V97.0879H150.479V98.1406H146.049V104.061C148.106 104.054 149.645 103.965 151.395 103.65L151.559 104.744C149.638 105.086 148.011 105.147 145.734 105.141H144.75ZM157.725 107.096C157.191 107.089 156.747 106.658 156.754 106.125C156.747 105.592 157.191 105.154 157.725 105.154C158.251 105.154 158.688 105.592 158.695 106.125C158.688 106.658 158.251 107.089 157.725 107.096Z" fill="#D5D5D5"/>
</svg>
