<svg width="148" height="111" viewBox="0 0 148 111" fill="none" xmlns="http://www.w3.org/2000/svg">
<rect x="38" width="72" height="72" rx="36" fill="#D5D5D5"/>
<path fill-rule="evenodd" clip-rule="evenodd" d="M95.9375 23H52.0625V31.6666C54.2002 31.6671 55.9331 33.607 55.9331 36C55.9331 38.3929 54.2002 40.3328 52.0625 40.3333V49H95.9375V40.3333H95.9368C93.7987 40.3333 92.0654 38.3932 92.0654 36C92.0654 33.6067 93.7987 31.6666 95.9368 31.6666H95.9375V23ZM65.0879 25.7368C65.4665 25.7368 65.7734 25.4305 65.7734 25.0526C65.7734 24.6747 65.4665 24.3684 65.0879 24.3684C64.7093 24.3684 64.4023 24.6747 64.4023 25.0526C64.4023 25.4305 64.7093 25.7368 65.0879 25.7368ZM65.7734 27.7895C65.7734 28.1673 65.4665 28.4737 65.0879 28.4737C64.7093 28.4737 64.4023 28.1673 64.4023 27.7895C64.4023 27.4116 64.7093 27.1052 65.0879 27.1052C65.4665 27.1052 65.7734 27.4116 65.7734 27.7895ZM65.0879 31.2105C65.4665 31.2105 65.7734 30.9042 65.7734 30.5263C65.7734 30.1484 65.4665 29.8421 65.0879 29.8421C64.7093 29.8421 64.4023 30.1484 64.4023 30.5263C64.4023 30.9042 64.7093 31.2105 65.0879 31.2105ZM65.7734 33.2631C65.7734 33.641 65.4665 33.9473 65.0879 33.9473C64.7093 33.9473 64.4023 33.641 64.4023 33.2631C64.4023 32.8852 64.7093 32.5789 65.0879 32.5789C65.4665 32.5789 65.7734 32.8852 65.7734 33.2631ZM65.0879 36.6842C65.4665 36.6842 65.7734 36.3778 65.7734 36C65.7734 35.6221 65.4665 35.3157 65.0879 35.3157C64.7093 35.3157 64.4023 35.6221 64.4023 36C64.4023 36.3778 64.7093 36.6842 65.0879 36.6842ZM65.7734 38.7369C65.7734 39.1148 65.4665 39.4211 65.0879 39.4211C64.7093 39.4211 64.4023 39.1148 64.4023 38.7369C64.4023 38.359 64.7093 38.0527 65.0879 38.0527C65.4665 38.0527 65.7734 38.359 65.7734 38.7369ZM65.0879 42.1579C65.4665 42.1579 65.7734 41.8516 65.7734 41.4737C65.7734 41.0958 65.4665 40.7895 65.0879 40.7895C64.7093 40.7895 64.4023 41.0958 64.4023 41.4737C64.4023 41.8516 64.7093 42.1579 65.0879 42.1579ZM65.7734 44.2105C65.7734 44.5884 65.4665 44.8948 65.0879 44.8948C64.7093 44.8948 64.4023 44.5884 64.4023 44.2105C64.4023 43.8327 64.7093 43.5263 65.0879 43.5263C65.4665 43.5263 65.7734 43.8327 65.7734 44.2105ZM65.0879 47.6316C65.4665 47.6316 65.7734 47.3253 65.7734 46.9474C65.7734 46.5695 65.4665 46.2632 65.0879 46.2632C64.7093 46.2632 64.4023 46.5695 64.4023 46.9474C64.4023 47.3253 64.7093 47.6316 65.0879 47.6316Z" fill="#F7F7F7"/>
<path d="M12.1416 105.564V106.645H0.930664V105.564H5.86621V103.049H2.21582V96.7461H3.51465V98.8516H9.53027V96.7461H10.8154V103.049H7.15137V105.564H12.1416ZM3.51465 101.996H9.53027V99.9043H3.51465V101.996ZM24.2275 102.83V103.896H21.3838V108.162H20.0713V103.896H17.1455V108.162H15.8057V103.896H13.0166V102.83H24.2275ZM14.2334 99.084C14.2402 97.4297 16.0039 96.377 18.5947 96.377C21.1855 96.377 22.9629 97.4297 22.9561 99.084C22.9629 100.718 21.1855 101.75 18.5947 101.736C16.0039 101.75 14.2402 100.718 14.2334 99.084ZM15.5732 99.084C15.5664 100.089 16.7764 100.711 18.5947 100.711C20.4199 100.711 21.623 100.089 21.6299 99.084C21.623 98.0518 20.4199 97.4229 18.5947 97.416C16.7764 97.4229 15.5664 98.0518 15.5732 99.084ZM39.7178 101.586V102.639H34.7686V103.814C37.0107 103.938 38.3438 104.689 38.3506 105.975C38.3438 107.362 36.7578 108.142 34.126 108.135C31.46 108.142 29.874 107.362 29.874 105.975C29.874 104.689 31.207 103.931 33.4834 103.814V102.639H28.5479V101.586H39.7178ZM29.1357 99.918C31.3369 99.6924 33.0732 98.6943 33.251 97.5117H29.5732V96.4727H38.7197V97.5117H35.001C35.1787 98.7012 36.9014 99.6924 39.1436 99.918L38.6787 100.943C36.5527 100.697 34.7959 99.8018 34.1328 98.5029C33.4561 99.8018 31.7129 100.697 29.5869 100.943L29.1357 99.918ZM31.1865 105.975C31.1797 106.72 32.2529 107.15 34.126 107.137C35.9717 107.15 37.0518 106.72 37.0518 105.975C37.0518 105.216 35.9717 104.806 34.126 104.799C32.2529 104.806 31.1797 105.216 31.1865 105.975ZM50.8057 95.9258V104.826H49.5068V95.9258H50.8057ZM40.8936 99.7812C40.9004 98.0107 42.3086 96.7529 44.1611 96.7461C46.0068 96.7529 47.415 98.0107 47.415 99.7812C47.415 101.579 46.0068 102.83 44.1611 102.83C42.3086 102.83 40.9004 101.579 40.8936 99.7812ZM42.165 99.7812C42.1582 100.937 43.0195 101.695 44.1611 101.695C45.2822 101.695 46.1436 100.937 46.1436 99.7812C46.1436 98.6533 45.2822 97.8809 44.1611 97.8809C43.0195 97.8809 42.1582 98.6533 42.165 99.7812ZM42.7939 107.902V103.924H44.1064V106.85H51.1748V107.902H42.7939ZM66.7061 95.9121V108.162H65.4619V101.846H64.0127V107.533H62.7822V96.1582H64.0127V100.779H65.4619V95.9121H66.7061ZM56.0283 104.115C56.3906 104.115 56.8076 104.115 57.2588 104.108V98.4688H56.2881V97.4023H61.9756V98.4688H61.0049V103.958C61.415 103.917 61.8115 103.876 62.1807 103.828L62.249 104.785C60.3213 105.154 57.7578 105.209 56.1787 105.209L56.0283 104.115ZM58.4482 104.088C58.8994 104.074 59.3574 104.061 59.8154 104.033V98.4688H58.4482V104.088ZM74.4854 97.6484C74.4854 99.6445 76.6113 101.531 78.9697 101.955L78.3682 103.035C76.4062 102.611 74.6084 101.326 73.8154 99.6035C73.0088 101.319 71.2109 102.598 69.249 103.035L68.6748 101.955C70.999 101.518 73.1113 99.6445 73.1182 97.6484V96.7188H74.4854V97.6484ZM68.2646 106.549V105.469H79.4756V106.549H68.2646ZM89.9072 95.9121V100.793H91.8076V101.873H89.9072V108.148H88.6084V95.9121H89.9072ZM80.3779 104.881C83.4473 103.35 85.1152 101.135 85.3818 98.2773H80.9932V97.1973H86.708C86.6943 100.738 85.1357 103.903 81.1025 105.893L80.3779 104.881ZM98.4932 103.09V104.512H100.407V103.09H101.61V108.012H97.2764V103.09H98.4932ZM96.0596 99.2617C96.0527 97.5869 97.3994 96.4316 99.2725 96.4316C100.886 96.4316 102.137 97.3408 102.403 98.7148H104.796V95.9121H106.095V102.406H104.796V99.7812H102.41C102.157 101.183 100.899 102.112 99.2725 102.105C97.3994 102.112 96.0527 100.95 96.0596 99.2617ZM97.3037 99.2617C97.2969 100.321 98.1172 101.046 99.2725 101.053C100.407 101.046 101.214 100.321 101.214 99.2617C101.214 98.2158 100.407 97.5049 99.2725 97.5117C98.1172 97.5049 97.2969 98.2158 97.3037 99.2617ZM98.4932 107H100.407V105.496H98.4932V107ZM101.679 107.123C103.155 106.515 103.88 105.229 103.88 104.006V103.008H105.165V104.006C105.158 105.291 105.883 106.59 107.394 107.123L106.724 108.107C105.616 107.684 104.898 106.884 104.509 105.913C104.105 106.856 103.388 107.67 102.335 108.107L101.679 107.123ZM110.647 103.254V104.553H116.403V103.254H117.702V108.012H109.362V103.254H110.647ZM107.981 102.488V101.408H119.151V102.488H107.981ZM108.583 99.6309C110.955 99.3232 112.896 98.0176 112.903 96.5684V96.0488H114.229V96.5684C114.236 97.9766 116.191 99.3438 118.536 99.6309L118.071 100.656C116.089 100.383 114.359 99.4395 113.573 98.1338C112.78 99.4463 111.044 100.383 109.075 100.656L108.583 99.6309ZM110.647 106.973H116.403V105.564H110.647V106.973ZM130.253 95.9121V108.162H128.954V95.9121H130.253ZM120.833 105.045V97.1016H122.118V103.924C123.909 103.917 125.789 103.76 127.751 103.363L127.929 104.457C125.762 104.901 123.793 105.052 121.858 105.045H120.833ZM141.724 95.9121V100.656H143.692V101.723H141.724V108.189H140.425V95.9121H141.724ZM132.7 105.141V97.0879H138.429V98.1406H133.999V104.061C136.057 104.054 137.595 103.965 139.345 103.65L139.509 104.744C137.588 105.086 135.961 105.147 133.685 105.141H132.7ZM145.675 107.096C145.142 107.089 144.697 106.658 144.704 106.125C144.697 105.592 145.142 105.154 145.675 105.154C146.201 105.154 146.639 105.592 146.646 106.125C146.639 106.658 146.201 107.089 145.675 107.096Z" fill="#D5D5D5"/>
</svg>
