<svg width="80" height="80" viewBox="0 0 80 80" fill="none" xmlns="http://www.w3.org/2000/svg">
<path d="M21.3 13C23.5543 13 25.7163 13.8889 27.3104 15.4713C28.9045 17.0536 29.8 19.1997 29.8 21.4375C29.8 23.6753 28.9045 25.8214 27.3104 27.4037C25.7163 28.9861 23.5543 29.875 21.3 29.875C19.0457 29.875 16.8837 28.9861 15.2896 27.4037C13.6955 25.8214 12.8 23.6753 12.8 21.4375C12.8 19.1997 13.6955 17.0536 15.2896 15.4713C16.8837 13.8889 19.0457 13 21.3 13ZM60.4 13C62.6543 13 64.8163 13.8889 66.4104 15.4713C68.0045 17.0536 68.9 19.1997 68.9 21.4375C68.9 23.6753 68.0045 25.8214 66.4104 27.4037C64.8163 28.9861 62.6543 29.875 60.4 29.875C58.1457 29.875 55.9837 28.9861 54.3896 27.4037C52.7955 25.8214 51.9 23.6753 51.9 21.4375C51.9 19.1997 52.7955 17.0536 54.3896 15.4713C55.9837 13.8889 58.1457 13 60.4 13ZM6 44.5035C6 38.2914 11.0787 33.25 17.3369 33.25H21.8737C23.5631 33.25 25.1675 33.6191 26.6125 34.273C26.4744 35.0324 26.4106 35.8234 26.4106 36.625C26.4106 40.6539 28.1956 44.2715 31.0112 46.75C30.99 46.75 30.9688 46.75 30.9369 46.75H8.26312C7.02 46.75 6 45.7375 6 44.5035ZM49.0631 46.75C49.0419 46.75 49.0206 46.75 48.9888 46.75C51.815 44.2715 53.5894 40.6539 53.5894 36.625C53.5894 35.8234 53.515 35.043 53.3875 34.273C54.8325 33.6086 56.4369 33.25 58.1263 33.25H62.6631C68.9212 33.25 74 38.2914 74 44.5035C74 45.748 72.98 46.75 71.7369 46.75H49.0737H49.0631ZM29.8 36.625C29.8 33.9397 30.8746 31.3643 32.7875 29.4655C34.7004 27.5667 37.2948 26.5 40 26.5C42.7052 26.5 45.2996 27.5667 47.2125 29.4655C49.1254 31.3643 50.2 33.9397 50.2 36.625C50.2 39.3103 49.1254 41.8857 47.2125 43.7845C45.2996 45.6833 42.7052 46.75 40 46.75C37.2948 46.75 34.7004 45.6833 32.7875 43.7845C30.8746 41.8857 29.8 39.3103 29.8 36.625ZM19.6 64.184C19.6 56.4215 25.9431 50.125 33.7631 50.125H46.2263C54.0569 50.125 60.4 56.4215 60.4 64.184C60.4 65.7344 59.1356 67 57.5631 67H22.4263C20.8644 67 19.5894 65.7449 19.5894 64.184H19.6Z" fill="#3BA8FF"/>
</svg>
