<svg width="24" height="24" viewBox="0 0 24 24" fill="none" xmlns="http://www.w3.org/2000/svg">
<path fill-rule="evenodd" clip-rule="evenodd" d="M22 6H2V10C2.97446 10.0002 3.76437 10.8956 3.76437 12C3.76437 13.1044 2.97446 13.9998 2 14V18H22V14H21.9997C21.025 14 20.235 13.1046 20.235 12C20.235 10.8954 21.025 10 21.9997 10H22V6ZM7.9375 7.26317C8.11009 7.26317 8.25 7.12179 8.25 6.94738C8.25 6.77298 8.11009 6.63159 7.9375 6.63159C7.76491 6.63159 7.625 6.77298 7.625 6.94738C7.625 7.12179 7.76491 7.26317 7.9375 7.26317ZM8.25 8.2105C8.25 8.38491 8.11009 8.52629 7.9375 8.52629C7.76491 8.52629 7.625 8.38491 7.625 8.2105C7.625 8.0361 7.76491 7.89471 7.9375 7.89471C8.11009 7.89471 8.25 8.0361 8.25 8.2105ZM7.9375 9.78948C8.11009 9.78948 8.25 9.64809 8.25 9.47369C8.25 9.29928 8.11009 9.1579 7.9375 9.1579C7.76491 9.1579 7.625 9.29928 7.625 9.47369C7.625 9.64809 7.76491 9.78948 7.9375 9.78948ZM8.25 10.7368C8.25 10.9112 8.11009 11.0526 7.9375 11.0526C7.76491 11.0526 7.625 10.9112 7.625 10.7368C7.625 10.5624 7.76491 10.421 7.9375 10.421C8.11009 10.421 8.25 10.5624 8.25 10.7368ZM7.9375 12.3158C8.11009 12.3158 8.25 12.1744 8.25 12C8.25 11.8256 8.11009 11.6842 7.9375 11.6842C7.76491 11.6842 7.625 11.8256 7.625 12C7.625 12.1744 7.76491 12.3158 7.9375 12.3158ZM8.25 13.2632C8.25 13.4376 8.11009 13.579 7.9375 13.579C7.76491 13.579 7.625 13.4376 7.625 13.2632C7.625 13.0888 7.76491 12.9474 7.9375 12.9474C8.11009 12.9474 8.25 13.0888 8.25 13.2632ZM7.9375 14.8421C8.11009 14.8421 8.25 14.7008 8.25 14.5264C8.25 14.352 8.11009 14.2106 7.9375 14.2106C7.76491 14.2106 7.625 14.352 7.625 14.5264C7.625 14.7008 7.76491 14.8421 7.9375 14.8421ZM8.25 15.7895C8.25 15.9639 8.11009 16.1053 7.9375 16.1053C7.76491 16.1053 7.625 15.9639 7.625 15.7895C7.625 15.6151 7.76491 15.4737 7.9375 15.4737C8.11009 15.4737 8.25 15.6151 8.25 15.7895ZM7.9375 17.3684C8.11009 17.3684 8.25 17.227 8.25 17.0526C8.25 16.8782 8.11009 16.7368 7.9375 16.7368C7.76491 16.7368 7.625 16.8782 7.625 17.0526C7.625 17.227 7.76491 17.3684 7.9375 17.3684Z" fill="#9F9F9F"/>
</svg>
