<svg width="80" height="80" viewBox="0 0 80 80" fill="none" xmlns="http://www.w3.org/2000/svg">
<path d="M12.5656 33.625H67.4344C69.4013 33.625 71 31.9814 71 29.9594C71 29.2322 70.7868 28.525 70.3993 27.9273L63.0841 16.6316C62.2218 15.2969 60.7781 14.5 59.2182 14.5H20.7915C19.2413 14.5 17.7879 15.2969 16.9256 16.6316L9.60072 27.9174C9.21316 28.525 9 29.2322 9 29.9494C9 31.9814 10.5987 33.625 12.5656 33.625ZM15.201 36.8125V52.75V60.7188C15.201 63.3584 17.2841 65.5 19.8517 65.5H41.5551C44.1227 65.5 46.2058 63.3584 46.2058 60.7188V52.75V36.8125H40.0048V52.75H21.4019V36.8125H15.201ZM58.6077 36.8125V62.3125C58.6077 64.0756 59.9933 65.5 61.7082 65.5C63.4232 65.5 64.8087 64.0756 64.8087 62.3125V36.8125H58.6077Z" fill="#3BA8FF"/>
</svg>
