<svg width="340" height="70" viewBox="0 0 340 70" fill="none" xmlns="http://www.w3.org/2000/svg">
<path fill-rule="evenodd" clip-rule="evenodd" d="M87.0001 66.0003C89.2092 66.0003 91.0001 67.7912 91.0001 70.0003L335 70.0002C337.761 70.0002 340 67.7617 340 65.0002V5.00024C340 2.23882 337.761 0.000244141 335 0.000244141L91.0001 0.000289917C91.0001 2.20943 89.2092 4.00029 87.0001 4.00029C84.791 4.00029 83.0001 2.20943 83.0001 0.000289917L5 0.000244141C2.23858 0.000244141 0 2.23882 0 5.00024V65.0002C0 67.7617 2.23858 70.0002 5 70.0002L83.0001 70.0003C83.0001 67.7912 84.791 66.0003 87.0001 66.0003ZM87.1143 49.029C87.4719 49.029 87.7618 49.3189 87.7618 49.6765C87.7618 50.0341 87.4719 50.324 87.1143 50.324C86.7567 50.324 86.4669 50.0341 86.4669 49.6765C86.4669 49.3189 86.7567 49.029 87.1143 49.029ZM87.7618 27.6623C87.7618 27.3047 87.4719 27.0148 87.1143 27.0148C86.7567 27.0148 86.4668 27.3047 86.4668 27.6623C86.4668 28.0199 86.7567 28.3098 87.1143 28.3098C87.4719 28.3098 87.7618 28.0199 87.7618 27.6623ZM87.1143 56.3671C87.4719 56.3671 87.7618 56.657 87.7618 57.0145C87.7618 57.3721 87.4719 57.662 87.1143 57.662C86.7567 57.662 86.4669 57.3721 86.4669 57.0145C86.4669 56.657 86.7567 56.3671 87.1143 56.3671ZM87.7618 35.0002C87.7618 34.6426 87.4719 34.3527 87.1143 34.3527C86.7567 34.3527 86.4669 34.6426 86.4669 35.0002C86.4669 35.3578 86.7567 35.6477 87.1143 35.6477C87.4719 35.6477 87.7618 35.3578 87.7618 35.0002ZM87.1143 12.3383C87.4719 12.3383 87.7618 12.6282 87.7618 12.9858C87.7618 13.3433 87.4719 13.6332 87.1143 13.6332C86.7567 13.6332 86.4669 13.3433 86.4669 12.9858C86.4669 12.6282 86.7567 12.3383 87.1143 12.3383ZM87.7618 64.3527C87.7618 63.9951 87.4719 63.7052 87.1143 63.7052C86.7567 63.7052 86.4668 63.9951 86.4668 64.3527C86.4668 64.7103 86.7567 65.0002 87.1143 65.0002C87.4719 65.0002 87.7618 64.7103 87.7618 64.3527ZM87.1143 41.6909C87.4719 41.6909 87.7618 41.9808 87.7618 42.3384C87.7618 42.696 87.4719 42.9858 87.1143 42.9858C86.7567 42.9858 86.4669 42.696 86.4669 42.3384C86.4669 41.9808 86.7567 41.6909 87.1143 41.6909ZM87.7618 20.3239C87.7618 19.9663 87.4719 19.6764 87.1143 19.6764C86.7567 19.6764 86.4669 19.9663 86.4669 20.3239C86.4669 20.6815 86.7567 20.9714 87.1143 20.9714C87.4719 20.9714 87.7618 20.6815 87.7618 20.3239ZM87.1143 52.6982C87.4719 52.6982 87.7618 52.9881 87.7618 53.3457C87.7618 53.7033 87.4719 53.9932 87.1143 53.9932C86.7567 53.9932 86.4669 53.7033 86.4669 53.3457C86.4669 52.9881 86.7567 52.6982 87.1143 52.6982ZM87.7618 31.3312C87.7618 30.9737 87.4719 30.6838 87.1143 30.6838C86.7567 30.6838 86.4669 30.9737 86.4669 31.3312C86.4669 31.6888 86.7567 31.9787 87.1143 31.9787C87.4719 31.9787 87.7618 31.6888 87.7618 31.3312ZM87.1143 8.66931C87.4719 8.66931 87.7618 8.9592 87.7618 9.31679C87.7618 9.67439 87.4719 9.96427 87.1143 9.96427C86.7567 9.96427 86.4669 9.67439 86.4669 9.31679C86.4669 8.9592 86.7567 8.66931 87.1143 8.66931ZM87.7618 60.6837C87.7618 60.3261 87.4719 60.0363 87.1143 60.0363C86.7567 60.0363 86.4669 60.3261 86.4669 60.6837C86.4669 61.0413 86.7567 61.3312 87.1143 61.3312C87.4719 61.3312 87.7618 61.0413 87.7618 60.6837ZM87.1143 38.0219C87.4719 38.0219 87.7618 38.3118 87.7618 38.6694C87.7618 39.027 87.4719 39.3169 87.1143 39.3169C86.7567 39.3169 86.4669 39.027 86.4669 38.6694C86.4669 38.3118 86.7567 38.0219 87.1143 38.0219ZM87.7618 16.6549C87.7618 16.2973 87.4719 16.0075 87.1143 16.0075C86.7567 16.0075 86.4669 16.2973 86.4669 16.6549C86.4669 17.0125 86.7567 17.3024 87.1143 17.3024C87.4719 17.3024 87.7618 17.0125 87.7618 16.6549ZM87.1143 45.3601C87.4719 45.3601 87.7618 45.65 87.7618 46.0075C87.7618 46.3651 87.4719 46.655 87.1143 46.655C86.7567 46.655 86.4669 46.3651 86.4669 46.0075C86.4669 45.65 86.7567 45.3601 87.1143 45.3601ZM87.7618 23.9931C87.7618 23.6355 87.4719 23.3456 87.1143 23.3456C86.7567 23.3456 86.4669 23.6355 86.4669 23.9931C86.4669 24.3507 86.7567 24.6406 87.1143 24.6406C87.4719 24.6406 87.7618 24.3507 87.7618 23.9931ZM87.1143 5.00012C87.4719 5.00012 87.7618 5.29001 87.7618 5.6476C87.7618 6.0052 87.4719 6.29508 87.1143 6.29508C86.7567 6.29508 86.4669 6.0052 86.4669 5.6476C86.4669 5.29001 86.7567 5.00012 87.1143 5.00012Z" fill="white"/>
</svg>
