<svg width="19" height="19" viewBox="0 0 19 19" fill="none" xmlns="http://www.w3.org/2000/svg">
<path d="M1 9.5C1 10.6162 1.21986 11.7215 1.64702 12.7528C2.07419 13.7841 2.70029 14.7211 3.48959 15.5104C4.27889 16.2997 5.21592 16.9258 6.24719 17.353C7.27846 17.7801 8.38376 18 9.5 18C10.6162 18 11.7215 17.7801 12.7528 17.353C13.7841 16.9258 14.7211 16.2997 15.5104 15.5104C16.2997 14.7211 16.9258 13.7841 17.353 12.7528C17.7801 11.7215 18 10.6162 18 9.5C18 8.38376 17.7801 7.27846 17.353 6.24719C16.9258 5.21592 16.2997 4.27889 15.5104 3.48959C14.7211 2.70029 13.7841 2.07419 12.7528 1.64702C11.7215 1.21986 10.6162 1 9.5 1C8.38376 1 7.27846 1.21986 6.24719 1.64702C5.21592 2.07419 4.27889 2.70029 3.48959 3.48959C2.70029 4.27889 2.07419 5.21592 1.64702 6.24719C1.21986 7.27846 1 8.38376 1 9.5Z" stroke="#2196F3" stroke-linecap="round" stroke-linejoin="round"/>
<path d="M12.1457 6.66623C11.9747 6.36945 11.7261 6.12479 11.4266 5.95842C11.1272 5.79206 10.7881 5.71026 10.4457 5.72179H8.55686C8.05589 5.72179 7.57545 5.9208 7.22121 6.27503C6.86698 6.62927 6.66797 7.10971 6.66797 7.61068C6.66797 8.11164 6.86698 8.59209 7.22121 8.94632C7.57545 9.30056 8.05589 9.49957 8.55686 9.49957H10.4457C10.9467 9.49957 11.4272 9.69857 11.7814 10.0528C12.1356 10.407 12.3346 10.8875 12.3346 11.3885C12.3346 11.8894 12.1356 12.3699 11.7814 12.7241C11.4272 13.0783 10.9467 13.2773 10.4457 13.2773H8.55686C8.21449 13.2889 7.87543 13.2071 7.57597 13.0407C7.27652 12.8743 7.02795 12.6297 6.85686 12.3329M9.5013 4.77734V14.2218" stroke="#2196F3" stroke-linecap="round" stroke-linejoin="round"/>
</svg>
