<svg width="16" height="16" viewBox="0 0 16 16" fill="none" xmlns="http://www.w3.org/2000/svg">
<path d="M1 8C1 8.91925 1.18106 9.82951 1.53284 10.6788C1.88463 11.5281 2.40024 12.2997 3.05025 12.9497C3.70026 13.5998 4.47194 14.1154 5.32122 14.4672C6.1705 14.8189 7.08075 15 8 15C8.91925 15 9.82951 14.8189 10.6788 14.4672C11.5281 14.1154 12.2997 13.5998 12.9497 12.9497C13.5998 12.2997 14.1154 11.5281 14.4672 10.6788C14.8189 9.82951 15 8.91925 15 8C15 7.08075 14.8189 6.1705 14.4672 5.32122C14.1154 4.47194 13.5998 3.70026 12.9497 3.05025C12.2997 2.40024 11.5281 1.88463 10.6788 1.53284C9.82951 1.18106 8.91925 1 8 1C7.08075 1 6.1705 1.18106 5.32122 1.53284C4.47194 1.88463 3.70026 2.40024 3.05025 3.05025C2.40024 3.70026 1.88463 4.47194 1.53284 5.32122C1.18106 6.1705 1 7.08075 1 8Z" stroke="#6D6D6D" stroke-linecap="round" stroke-linejoin="round"/>
<path d="M10.1771 5.6664C10.0362 5.42199 9.83152 5.2205 9.58491 5.08349C9.3383 4.94649 9.05908 4.87913 8.77713 4.88862H7.22157C6.80901 4.88862 6.41335 5.05251 6.12163 5.34423C5.8299 5.63595 5.66602 6.03161 5.66602 6.44417C5.66602 6.85673 5.8299 7.25239 6.12163 7.54412C6.41335 7.83584 6.80901 7.99973 7.22157 7.99973H8.77713C9.18969 7.99973 9.58535 8.16362 9.87707 8.45534C10.1688 8.74706 10.3327 9.14273 10.3327 9.55528C10.3327 9.96784 10.1688 10.3635 9.87707 10.6552C9.58535 10.947 9.18969 11.1108 8.77713 11.1108H7.22157C6.93962 11.1203 6.66039 11.053 6.41379 10.916C6.16718 10.779 5.96247 10.5775 5.82157 10.3331M7.99935 4.11084V11.8886" stroke="#6D6D6D" stroke-linecap="round" stroke-linejoin="round"/>
</svg>
