<svg width="80" height="80" viewBox="0 0 80 80" fill="none" xmlns="http://www.w3.org/2000/svg">
<rect x="4" y="4" width="72" height="72" rx="36" fill="#D5D5D5"/>
<path d="M22.3004 36H57.6996C58.9686 36 60 34.9688 60 33.7C60 33.2437 59.8625 32.8 59.6124 32.425L54.893 25.3375C54.3366 24.5 53.4052 24 52.3988 24H27.6074C26.6073 24 25.6696 24.5 25.1133 25.3375L20.3876 32.4187C20.1375 32.8 20 33.2438 20 33.6938C20 34.9688 21.0314 36 22.3004 36ZM24.0006 38V48V53C24.0006 54.6562 25.3446 56 27.0011 56H41.0033C42.6598 56 44.0037 54.6562 44.0037 53V48V38H40.0031V48H28.0013V38H24.0006ZM52.005 38V54C52.005 55.1063 52.8989 56 54.0053 56C55.1117 56 56.0056 55.1063 56.0056 54V38H52.005Z" fill="#F7F7F7"/>
</svg>
