<svg width="39" height="30" viewBox="0 0 39 30" fill="none" xmlns="http://www.w3.org/2000/svg">
<path d="M0.717773 11V0.394531H8.11523V2.65039H3.50098V4.56934H7.64648V6.8252H3.50098V11H0.717773ZM12.0117 0.394531V11H9.22852V0.394531H12.0117ZM13.1396 2.65039V0.394531H22.2803V2.65039H19.0869V11H16.333V2.65039H13.1396ZM0.717773 29V18.3945H5.22949C7.60254 18.3945 9.15527 19.8813 9.15527 22.1152C9.15527 24.3857 7.55859 25.814 5.1416 25.8066H3.50098V29H0.717773ZM3.50098 23.6387H4.58496C5.63232 23.6313 6.24756 23.0454 6.24023 22.1152C6.24756 21.1924 5.63232 20.6284 4.58496 20.6211H3.50098V23.6387ZM11.5576 29H8.54004L12.0703 18.3945H15.8643L19.3799 29H16.377L15.7397 26.9199H12.1875L11.5576 29ZM12.832 24.8105H15.0952L14.0039 21.251H13.916L12.832 24.8105ZM25.752 21.6758C25.6934 20.9653 25.2246 20.5405 24.2725 20.5479C23.3569 20.5405 22.9321 20.9067 22.9248 21.3975C22.9028 21.9468 23.4009 22.2471 24.3896 22.4521L25.2686 22.6572C27.5464 23.1406 28.5645 24.2466 28.5791 25.8799C28.5645 27.96 26.9678 29.1245 24.2871 29.1318C21.5479 29.1245 19.7681 27.938 19.7461 25.3232H22.4121C22.4561 26.312 23.1372 26.832 24.2432 26.832C25.2026 26.832 25.7153 26.4438 25.7227 25.8799C25.7153 25.3672 25.2759 25.0669 24.0967 24.8105L23.0273 24.5762C21.1597 24.166 20.0171 23.2432 20.0244 21.6025C20.0098 19.5957 21.7822 18.248 24.2725 18.248C26.814 18.248 28.418 19.6177 28.4326 21.6758H25.752ZM35.4346 21.6758C35.376 20.9653 34.9072 20.5405 33.9551 20.5479C33.0396 20.5405 32.6147 20.9067 32.6074 21.3975C32.5854 21.9468 33.0835 22.2471 34.0723 22.4521L34.9512 22.6572C37.229 23.1406 38.2471 24.2466 38.2617 25.8799C38.2471 27.96 36.6504 29.1245 33.9697 29.1318C31.2305 29.1245 29.4507 27.938 29.4287 25.3232H32.0947C32.1387 26.312 32.8198 26.832 33.9258 26.832C34.8853 26.832 35.3979 26.4438 35.4053 25.8799C35.3979 25.3672 34.9585 25.0669 33.7793 24.8105L32.71 24.5762C30.8423 24.166 29.6997 23.2432 29.707 21.6025C29.6924 19.5957 31.4648 18.248 33.9551 18.248C36.4966 18.248 38.1006 19.6177 38.1152 21.6758H35.4346Z" fill="#2196F3"/>
</svg>
