<svg width="19" height="8" viewBox="0 0 19 8" fill="none" xmlns="http://www.w3.org/2000/svg">
<path fill-rule="evenodd" clip-rule="evenodd" d="M0.166929 0.12612C0.372881 -0.0578326 0.688961 -0.0399988 0.872913 0.165953C5.41575 5.25208 13.1268 5.557 18.1359 0.158924C18.3238 -0.0434934 18.6401 -0.0553154 18.8425 0.132519C19.045 0.320353 19.0568 0.636715 18.8689 0.839133C18.1197 1.64659 17.3132 2.33618 16.4667 2.91042L18.3503 4.49209C18.5618 4.66966 18.5893 4.98505 18.4117 5.19652C18.2341 5.408 17.9188 5.43548 17.7073 5.25791L15.5731 3.46586C14.8232 3.89114 14.048 4.23178 13.2584 4.48938C13.2708 4.51269 13.2815 4.5373 13.2903 4.56309L14.2378 7.33833C14.3271 7.59966 14.1875 7.88384 13.9262 7.97306C13.6649 8.06228 13.3807 7.92276 13.2915 7.66143L12.344 4.88619C12.3292 4.84294 12.3207 4.79907 12.318 4.75557C10.7516 5.13254 9.1464 5.19293 7.58437 4.94878L6.65825 7.66143C6.56902 7.92276 6.28485 8.06228 6.02351 7.97306C5.76218 7.88384 5.62266 7.59966 5.71188 7.33833L6.59491 4.75192C5.59326 4.50926 4.61722 4.13884 3.68931 3.64399C3.68116 3.65183 3.67269 3.65944 3.66391 3.66682L1.29516 5.65583C1.08369 5.83341 0.768302 5.80593 0.590728 5.59445C0.413153 5.38297 0.440635 5.06759 0.652111 4.89001L2.77619 3.10644C1.82022 2.48823 0.927983 1.72877 0.127097 0.832104C-0.056856 0.626152 -0.0390222 0.310072 0.166929 0.12612Z" fill="#838383"/>
</svg>
