<svg width="28" height="16" viewBox="0 0 28 16" fill="none" xmlns="http://www.w3.org/2000/svg">
<path fill-rule="evenodd" clip-rule="evenodd" d="M27.5 0H0.5V5.33331H0.500024C1.81576 5.33331 2.88238 6.52722 2.88238 7.99998C2.88238 9.47274 1.81576 10.6666 0.500024 10.6666H0.5V16H27.5V10.6666H27.5C26.1842 10.6666 25.1176 9.47274 25.1176 7.99998C25.1176 6.52722 26.1842 5.33331 27.5 5.33331H27.5V0ZM8.51559 1.68421C8.74859 1.68421 8.93747 1.4957 8.93747 1.26315C8.93747 1.03061 8.74859 0.842102 8.51559 0.842102C8.2826 0.842102 8.09372 1.03061 8.09372 1.26315C8.09372 1.4957 8.2826 1.68421 8.51559 1.68421ZM8.93747 2.94736C8.93747 3.1799 8.74859 3.36841 8.51559 3.36841C8.2826 3.36841 8.09372 3.1799 8.09372 2.94736C8.09372 2.71482 8.2826 2.52631 8.51559 2.52631C8.74859 2.52631 8.93747 2.71482 8.93747 2.94736ZM8.51559 5.05262C8.74859 5.05262 8.93747 4.8641 8.93747 4.63156C8.93747 4.39902 8.74859 4.21051 8.51559 4.21051C8.2826 4.21051 8.09372 4.39902 8.09372 4.63156C8.09372 4.8641 8.2826 5.05262 8.51559 5.05262ZM8.93747 6.31577C8.93747 6.54831 8.74859 6.73682 8.51559 6.73682C8.2826 6.73682 8.09372 6.54831 8.09372 6.31577C8.09372 6.08323 8.2826 5.89471 8.51559 5.89471C8.74859 5.89471 8.93747 6.08323 8.93747 6.31577ZM8.51559 8.42102C8.74859 8.42102 8.93747 8.23251 8.93747 7.99997C8.93747 7.76743 8.74859 7.57892 8.51559 7.57892C8.2826 7.57892 8.09372 7.76743 8.09372 7.99997C8.09372 8.23251 8.2826 8.42102 8.51559 8.42102ZM8.93747 9.68424C8.93747 9.91678 8.74859 10.1053 8.51559 10.1053C8.2826 10.1053 8.09372 9.91678 8.09372 9.68424C8.09372 9.4517 8.2826 9.26318 8.51559 9.26318C8.74859 9.26318 8.93747 9.4517 8.93747 9.68424ZM8.51559 11.7895C8.74859 11.7895 8.93747 11.601 8.93747 11.3684C8.93747 11.1359 8.74859 10.9474 8.51559 10.9474C8.2826 10.9474 8.09372 11.1359 8.09372 11.3684C8.09372 11.601 8.2826 11.7895 8.51559 11.7895ZM8.93747 13.0526C8.93747 13.2852 8.74859 13.4737 8.51559 13.4737C8.2826 13.4737 8.09372 13.2852 8.09372 13.0526C8.09372 12.8201 8.2826 12.6316 8.51559 12.6316C8.74859 12.6316 8.93747 12.8201 8.93747 13.0526ZM8.51559 15.1579C8.74859 15.1579 8.93747 14.9694 8.93747 14.7368C8.93747 14.5043 8.74859 14.3158 8.51559 14.3158C8.2826 14.3158 8.09372 14.5043 8.09372 14.7368C8.09372 14.9694 8.2826 15.1579 8.51559 15.1579Z" fill="#2196F3"/>
</svg>
