<svg width="96" height="95" viewBox="0 0 96 95" fill="none" xmlns="http://www.w3.org/2000/svg">
<circle cx="48" cy="47.5" r="47.5" fill="#2196F3"/>
<rect width="42.2222" height="42.2222" transform="translate(27.416 26.3887)" fill="#2196F3"/>
<path d="M67.5403 37.6439L63.5819 33.7581C63.0873 33.2651 62.4174 32.9883 61.719 32.9883C61.0207 32.9883 60.3508 33.2651 59.8561 33.7581L44.5687 48.8575L38.5174 42.986C38.0218 42.4946 37.3516 42.2195 36.6537 42.2211C35.9557 42.2226 35.2868 42.5006 34.7933 42.9942L30.835 46.9526C30.3409 47.4473 30.0635 48.1179 30.0635 48.8171C30.0635 49.5163 30.3409 50.1869 30.835 50.6816L42.6473 62.5566C42.8923 62.8017 43.1833 62.9962 43.5035 63.1288C43.8237 63.2615 44.1669 63.3298 44.5135 63.3298C44.8601 63.3298 45.2033 63.2615 45.5235 63.1288C45.8437 62.9962 46.1346 62.8017 46.3797 62.5566L67.5485 41.3829C67.7941 41.1371 67.9887 40.8454 68.1212 40.5243C68.2537 40.2031 68.3216 39.859 68.3208 39.5117C68.32 39.1643 68.2507 38.8205 68.1168 38.4999C67.9828 38.1794 67.7869 37.8885 67.5403 37.6439ZM44.5061 60.6946L32.6937 48.8196L36.6521 44.8612C36.6569 44.8652 36.6613 44.8696 36.6653 44.8744L43.6501 51.6514C43.8966 51.8927 44.2279 52.0278 44.5728 52.0278C44.9178 52.0278 45.2491 51.8927 45.4956 51.6514L61.7314 35.6251L65.6798 39.5175L44.5061 60.6946Z" fill="white"/>
</svg>
