<svg width="10" height="11" viewBox="0 0 10 11" fill="none" xmlns="http://www.w3.org/2000/svg">
<path d="M9.51857 7.22296L7.16306 6.16745L7.15656 6.16445C7.03427 6.11215 6.90087 6.09116 6.76844 6.10338C6.636 6.11561 6.5087 6.16066 6.39805 6.23445C6.38502 6.24306 6.3725 6.25241 6.36055 6.26245L5.14354 7.29996C4.37254 6.92546 3.57653 6.13545 3.20203 5.37445L4.24103 4.13893C4.25104 4.12643 4.26053 4.11393 4.26954 4.10043C4.34175 3.99008 4.38556 3.86359 4.39708 3.73222C4.40859 3.60084 4.38745 3.46866 4.33554 3.34743V3.34143L3.27703 0.981903C3.2084 0.823534 3.09039 0.691608 2.94062 0.605819C2.79085 0.52003 2.61735 0.484979 2.44602 0.505899C1.7685 0.595053 1.1466 0.927787 0.696476 1.44196C0.24635 1.95612 -0.00122047 2.61656 4.52435e-06 3.29993C4.52435e-06 7.26996 3.23003 10.5 7.20006 10.5C7.88342 10.5012 8.54385 10.2536 9.05802 9.80352C9.57219 9.35339 9.90492 8.73149 9.99408 8.05397C10.015 7.8827 9.98006 7.70925 9.89436 7.55948C9.80867 7.40972 9.67685 7.29168 9.51857 7.22296ZM7.20006 9.69999C5.50323 9.69813 3.87643 9.02325 2.67659 7.82341C1.47675 6.62356 0.801863 4.99676 0.80001 3.29993C0.798129 2.81167 0.974037 2.33941 1.29488 1.97137C1.61573 1.60332 2.05957 1.36464 2.54352 1.29991V1.30591L3.59353 3.65593L2.56002 4.89294C2.54953 4.90501 2.54 4.91788 2.53152 4.93144C2.45628 5.0469 2.41214 5.17984 2.40338 5.31738C2.39462 5.45491 2.42154 5.59238 2.48152 5.71645C2.93453 6.64296 3.86803 7.56947 4.80454 8.02197C4.92952 8.0814 5.06778 8.10738 5.20581 8.09739C5.34384 8.0874 5.47692 8.04178 5.59204 7.96497C5.60488 7.95632 5.61723 7.94698 5.62904 7.93697L6.84455 6.89996L9.19457 7.95247H9.20007C9.13613 8.43711 8.89781 8.88185 8.52969 9.20349C8.16158 9.52513 7.68889 9.70163 7.20006 9.69999Z" fill="#3BA8FF"/>
</svg>
