<svg width="10" height="11" viewBox="0 0 10 11" fill="none" xmlns="http://www.w3.org/2000/svg">
<path d="M8.209 10.9168C7.75761 10.9168 7.37393 10.7589 7.05795 10.4429C6.74198 10.1269 6.584 9.74323 6.584 9.29185C6.584 9.23768 6.59754 9.11129 6.62462 8.91268L2.81941 6.69184C2.67496 6.82726 2.50795 6.93333 2.31836 7.01007C2.12878 7.08681 1.92565 7.12517 1.70899 7.12517C1.2576 7.12517 0.873916 6.96719 0.557944 6.65122C0.241971 6.33524 0.0839844 5.95156 0.0839844 5.50017C0.0839844 5.04878 0.241971 4.6651 0.557944 4.34913C0.873916 4.03316 1.2576 3.87517 1.70899 3.87517C1.92565 3.87517 2.12878 3.91354 2.31836 3.99027C2.50795 4.06701 2.67496 4.17309 2.81941 4.3085L6.62462 2.08767C6.60656 2.02447 6.59528 1.96353 6.59077 1.90485C6.58625 1.84617 6.584 1.78072 6.584 1.7085C6.584 1.25711 6.74198 0.873428 7.05795 0.557455C7.37393 0.241482 7.75761 0.0834961 8.209 0.0834961C8.66039 0.0834961 9.04407 0.241482 9.36004 0.557455C9.67601 0.873428 9.834 1.25711 9.834 1.7085C9.834 2.15989 9.67601 2.54357 9.36004 2.85954C9.04407 3.17552 8.66039 3.3335 8.209 3.3335C7.99233 3.3335 7.78921 3.29513 7.59962 3.2184C7.41004 3.14166 7.24302 3.03558 7.09858 2.90017L3.29337 5.121C3.31142 5.1842 3.32271 5.24514 3.32722 5.30382C3.33173 5.3625 3.33399 5.42795 3.33399 5.50017C3.33399 5.57239 3.33173 5.63785 3.32722 5.69653C3.32271 5.75521 3.31142 5.81614 3.29337 5.87934L7.09858 8.10018C7.24302 7.96476 7.41004 7.85868 7.59962 7.78195C7.78921 7.70521 7.99233 7.66684 8.209 7.66684C8.66039 7.66684 9.04407 7.82483 9.36004 8.1408C9.67601 8.45677 9.834 8.84046 9.834 9.29185C9.834 9.74323 9.67601 10.1269 9.36004 10.4429C9.04407 10.7589 8.66039 10.9168 8.209 10.9168ZM8.209 9.83351C8.36247 9.83351 8.49112 9.7816 8.59494 9.67778C8.69876 9.57396 8.75067 9.44532 8.75067 9.29185C8.75067 9.13837 8.69876 9.00973 8.59494 8.90591C8.49112 8.80209 8.36247 8.75018 8.209 8.75018C8.05553 8.75018 7.92688 8.80209 7.82306 8.90591C7.71924 9.00973 7.66733 9.13837 7.66733 9.29185C7.66733 9.44532 7.71924 9.57396 7.82306 9.67778C7.92688 9.7816 8.05553 9.83351 8.209 9.83351ZM1.70899 6.04184C1.86246 6.04184 1.99111 5.98993 2.09493 5.88611C2.19875 5.78229 2.25065 5.65364 2.25065 5.50017C2.25065 5.3467 2.19875 5.21805 2.09493 5.11423C1.99111 5.01041 1.86246 4.9585 1.70899 4.9585C1.55551 4.9585 1.42687 5.01041 1.32305 5.11423C1.21923 5.21805 1.16732 5.3467 1.16732 5.50017C1.16732 5.65364 1.21923 5.78229 1.32305 5.88611C1.42687 5.98993 1.55551 6.04184 1.70899 6.04184ZM8.209 2.25017C8.36247 2.25017 8.49112 2.19826 8.59494 2.09444C8.69876 1.99062 8.75067 1.86197 8.75067 1.7085C8.75067 1.55503 8.69876 1.42638 8.59494 1.32256C8.49112 1.21874 8.36247 1.16683 8.209 1.16683C8.05553 1.16683 7.92688 1.21874 7.82306 1.32256C7.71924 1.42638 7.66733 1.55503 7.66733 1.7085C7.66733 1.86197 7.71924 1.99062 7.82306 2.09444C7.92688 2.19826 8.05553 2.25017 8.209 2.25017Z" fill="#2196F3"/>
</svg>
