<svg width="20" height="18" viewBox="0 0 20 18" fill="none" xmlns="http://www.w3.org/2000/svg">
<path d="M18.4615 0.5H1.53846C1.13044 0.5 0.739122 0.662824 0.450605 0.952653C0.162087 1.24248 0 1.63557 0 2.04545V15.9545C0 16.3644 0.162087 16.7575 0.450605 17.0473C0.739122 17.3372 1.13044 17.5 1.53846 17.5H18.4615C18.8696 17.5 19.2609 17.3372 19.5494 17.0473C19.8379 16.7575 20 16.3644 20 15.9545V2.04545C20 1.63557 19.8379 1.24248 19.5494 0.952653C19.2609 0.662824 18.8696 0.5 18.4615 0.5ZM18.4615 2.04545V11.9702L15.9548 9.45301C15.8119 9.30947 15.6423 9.19559 15.4557 9.11791C15.269 9.04022 15.0689 9.00023 14.8668 9.00023C14.6648 9.00023 14.4647 9.04022 14.278 9.11791C14.0913 9.19559 13.9217 9.30947 13.7788 9.45301L11.8558 11.3848L7.625 7.13483C7.33651 6.84522 6.94535 6.68253 6.5375 6.68253C6.12965 6.68253 5.73849 6.84522 5.45 7.13483L1.53846 11.0641V2.04545H18.4615ZM1.53846 13.25L6.53846 8.22727L10.3846 12.0909L14.2308 15.9545H1.53846V13.25ZM18.4615 15.9545H16.4067L12.9452 12.4773L14.8683 10.5455L18.4615 14.156V15.9545ZM11.5385 6.29545C11.5385 6.06621 11.6061 5.84211 11.7329 5.6515C11.8597 5.46089 12.0399 5.31232 12.2507 5.22459C12.4616 5.13686 12.6936 5.11391 12.9174 5.15864C13.1412 5.20336 13.3468 5.31375 13.5082 5.47585C13.6696 5.63796 13.7795 5.84449 13.824 6.06933C13.8685 6.29417 13.8457 6.52722 13.7583 6.73902C13.671 6.95082 13.5231 7.13184 13.3333 7.2592C13.1436 7.38657 12.9205 7.45455 12.6923 7.45455C12.3863 7.45455 12.0928 7.33243 11.8764 7.11506C11.66 6.89768 11.5385 6.60286 11.5385 6.29545Z" fill="#BABABA"/>
</svg>
